<?xml version="1.0" encoding="UTF-8"?>
<svg id="Laag_1" data-name="Laag 1" xmlns="http://www.w3.org/2000/svg" xmlns:xlink="http://www.w3.org/1999/xlink" viewBox="0 0 150 155">
  <defs>
    <linearGradient id="Naamloos_verloop_77" data-name="Naamloos verloop 77" x1="149.39" y1="78.19" x2="5.5" y2="89.38" gradientUnits="userSpaceOnUse">
      <stop offset=".09" stop-color="#7b7d81"/>
      <stop offset=".95" stop-color="#d3d4d4"/>
    </linearGradient>
    <linearGradient id="Naamloos_verloop_78" data-name="Naamloos verloop 78" x1="75.36" y1="8.31" x2="140.08" y2="23.28" gradientUnits="userSpaceOnUse">
      <stop offset="0" stop-color="#cccdcd"/>
      <stop offset="1" stop-color="#96989a"/>
    </linearGradient>
    <linearGradient id="Naamloos_verloop_81" data-name="Naamloos verloop 81" x1="74.63" y1="71.06" x2="113.36" y2="72.38" gradientUnits="userSpaceOnUse">
      <stop offset="0" stop-color="#6a8eba"/>
      <stop offset="1" stop-color="#5174a7"/>
    </linearGradient>
    <linearGradient id="Naamloos_verloop_82" data-name="Naamloos verloop 82" x1="82.7" y1="81.56" x2="131.5" y2="88.09" gradientUnits="userSpaceOnUse">
      <stop offset="0" stop-color="#4e719c"/>
      <stop offset="1" stop-color="#335488"/>
    </linearGradient>
    <linearGradient id="Naamloos_verloop_83" data-name="Naamloos verloop 83" x1="47.47" y1="31.29" x2="42.18" y2="135.93" gradientUnits="userSpaceOnUse">
      <stop offset="0" stop-color="#6f91c1"/>
      <stop offset="1" stop-color="#547ab1"/>
    </linearGradient>
    <linearGradient id="Naamloos_verloop_79" data-name="Naamloos verloop 79" x1="45.75" y1="18.72" x2="49.03" y2="132.95" gradientUnits="userSpaceOnUse">
      <stop offset="0" stop-color="#aabcdb"/>
      <stop offset="1" stop-color="#7795c2"/>
    </linearGradient>
    <linearGradient id="Naamloos_verloop_64" data-name="Naamloos verloop 64" x1="89.4" y1="71.88" x2="63.61" y2="111.65" gradientUnits="userSpaceOnUse">
      <stop offset="0" stop-color="#f9b73a"/>
      <stop offset="1" stop-color="#e84f31"/>
    </linearGradient>
    <linearGradient id="Naamloos_verloop_65" data-name="Naamloos verloop 65" x1="92.86" y1="69.5" x2="59.53" y2="106.67" gradientUnits="userSpaceOnUse">
      <stop offset="0" stop-color="#f6ca6f"/>
      <stop offset=".51" stop-color="#f1a14f"/>
      <stop offset="1" stop-color="#ea6138"/>
    </linearGradient>
    <linearGradient id="Naamloos_verloop_66" data-name="Naamloos verloop 66" x1="85.45" y1="73.9" x2="72.71" y2="109.25" gradientUnits="userSpaceOnUse">
      <stop offset="0" stop-color="#f5c364"/>
      <stop offset="1" stop-color="#e7884c"/>
    </linearGradient>
    <linearGradient id="Naamloos_verloop_73" data-name="Naamloos verloop 73" x1="69.64" y1="100.04" x2="75.27" y2="108" gradientUnits="userSpaceOnUse">
      <stop offset="0" stop-color="#f38931"/>
      <stop offset="1" stop-color="#f16b2e"/>
    </linearGradient>
    <linearGradient id="Naamloos_verloop_74" data-name="Naamloos verloop 74" x1="81.02" y1="104.13" x2="80.58" y2="113.34" gradientUnits="userSpaceOnUse">
      <stop offset="0" stop-color="#f7a93a"/>
      <stop offset="1" stop-color="#f59135"/>
    </linearGradient>
    <linearGradient id="Naamloos_verloop_75" data-name="Naamloos verloop 75" x1="85.87" y1="90.59" x2="70.26" y2="109.85" gradientUnits="userSpaceOnUse">
      <stop offset="0" stop-color="#f8efdb"/>
      <stop offset="1" stop-color="#d1c1b7"/>
    </linearGradient>
    <linearGradient id="Naamloos_verloop_67" data-name="Naamloos verloop 67" x1="69.85" y1="99.26" x2="83.87" y2="109.11" gradientUnits="userSpaceOnUse">
      <stop offset="0" stop-color="#f5b855"/>
      <stop offset="1" stop-color="#f8dc62"/>
    </linearGradient>
    <linearGradient id="Naamloos_verloop_93" data-name="Naamloos verloop 93" x1="122.4" y1="18.85" x2="105.09" y2="152.56" gradientUnits="userSpaceOnUse">
      <stop offset="0" stop-color="#8c8d91"/>
      <stop offset=".77" stop-color="#9fa1a5"/>
    </linearGradient>
    <linearGradient id="Naamloos_verloop_94" data-name="Naamloos verloop 94" x1="18.38" y1="68.89" x2="113" y2="72.85" gradientUnits="userSpaceOnUse">
      <stop offset=".17" stop-color="#eb8b58"/>
      <stop offset=".39" stop-color="#f3a440"/>
      <stop offset=".53" stop-color="#f3b76d"/>
      <stop offset=".62" stop-color="#f4a13b"/>
      <stop offset="1" stop-color="#ea7e36"/>
    </linearGradient>
    <linearGradient id="Naamloos_verloop_98" data-name="Naamloos verloop 98" x1="67.24" y1="31.83" x2="20.08" y2="76.33" gradientUnits="userSpaceOnUse">
      <stop offset="0" stop-color="#f7deaf"/>
      <stop offset="1" stop-color="#ef9a6b"/>
    </linearGradient>
    <linearGradient id="Naamloos_verloop_99" data-name="Naamloos verloop 99" x1="86.15" y1="57.77" x2="77.14" y2="86.03" gradientUnits="userSpaceOnUse">
      <stop offset="0" stop-color="#ee7332"/>
      <stop offset="1" stop-color="#e04e2b"/>
    </linearGradient>
    <linearGradient id="Naamloos_verloop_100" data-name="Naamloos verloop 100" x1="66.71" y1="84.02" x2="84.21" y2="102.57" gradientUnits="userSpaceOnUse">
      <stop offset="0" stop-color="#fef3a1"/>
      <stop offset="1" stop-color="#fcd689"/>
    </linearGradient>
  </defs>
  <g>
    <path d="M73.92,2h2.11c22.84,8.21,46.96,14.12,71.62,16.23-.58,42.69,7.85,81.58-33.28,113.95-5,3.93-34.57,21.29-40.02,20.81-1.37-.12-12.19-5.26-14.32-6.29-20.42-9.81-35.95-21.72-46.68-39.81C-2.96,79.44,3.34,48.07,2.6,18.51,27.07,15.66,51.21,10.42,73.92,2Z" style="fill: #fcf2aa; stroke: #54657b; stroke-linecap: round; stroke-linejoin: round; stroke-width: 4px;"/>
    <g id="Generatief_object" data-name="Generatief object">
      <path d="M14.3,25.52c-.35.67-1.01.12-.79,1.19-.3.09-.73-.17-.99.3-.83,17.1-3.04,33.6,0,50.61,1,5.59,2.7,12.31,4.74,17.6,9.4,24.35,34.54,39.31,57.83,48.14,23.08-9.11,47.85-23.65,57.24-47.94,2.96-7.65,4.91-17.82,5.73-26,.66.43.78.62.99,1.38-1.23,9.18-3.05,18.25-6.43,26.89l1.29-2.47c1.49-3.87,6.03-21.19,5.14-24.42.11-.8.53-1.34.59-1.88,1.52-13.62-.97-28.3-.99-42.01.11-.67-.59-.28-.99-.4-.86-.25-1.31.21-1.19-.99,3.36-.26,7.45-5.07,10.87-6.13-.34,29.11,4.28,60.42-9.89,87.09-8.7,16.38-23.33,27.96-39.24,36.87-2.99,1.67-21.78,11.27-23.72,11.07-1.18-.12-11.75-5.21-13.64-6.13C13.63,125.32,1.78,99.93,1.85,48.15c0-7.02-.63-21.69.4-27.88.03-.2.25-.96.4-1.09l9.39,6.33c.77.37,1.48.02,2.27,0Z" style="fill: url(#Naamloos_verloop_77);"/>
      <path d="M147.36,19.39c-3.43,1.06-7.51,5.86-10.87,6.13-3.69.29-11.56-1.01-15.52-1.58-16.06-2.33-31.23-7.62-46.56-12.65V2.58c23.69,8.05,47.98,14.16,72.95,16.8Z" style="fill: url(#Naamloos_verloop_78);"/>
      <path d="M74.41,2.58v8.7c-18.78,6.7-39.96,13.69-60.1,14.23-.79.02-1.5.37-2.27,0l-9.39-6.33c24.51-2.55,48.53-8.16,71.77-16.61Z" style="fill: #e5e5e5;"/>
      <path d="M136.49,25.52c-.13,1.2.32.74,1.19.99-.35.02-.45-.04-.4.4-21.46-1.39-41.97-6.22-61.98-13.84-14.64,4.88-29.11,9.7-44.48,11.86-4.52.64-13.59.63-17.3,1.78-.22-1.06.44-.52.79-1.19,20.14-.55,41.32-7.53,60.1-14.23,15.33,5.03,30.5,10.33,46.56,12.65,3.96.57,11.83,1.87,15.52,1.58Z" style="fill: #9a9ca0;"/>
      <path d="M137.67,26.5c.05,0,.8.35.99.4.02,13.71,2.51,28.39.99,42.01-.06.54-.49,1.08-.59,1.88-.21-.76-.33-.95-.99-1.38,1.43-14.12-.53-28.35-.79-42.51-.05-.43.04-.37.4-.4Z" style="fill: #e5e5e5;"/>
      <path d="M139.06,70.79c.89,3.23-3.65,20.55-5.14,24.42l-1.29,2.47c3.38-8.64,5.2-17.7,6.43-26.89Z" style="fill: #e5e5e5;"/>
      <path d="M138.66,26.9c-.19-.04-.94-.4-.99-.4.4.12,1.1-.28.99.4Z" style="fill: #9a9ca0;"/>
      <g>
        <path d="M113.75,25.91c1.51,15.94,3.69,32.89.4,48.73-3.71,17.83-13.78,34.99-28.37,45.97-2.49,1.87-8.56,4.77-10.18,6.33l-.59-111.7c12.72,4.29,25.44,8.56,38.75,10.68Z" style="fill: url(#Naamloos_verloop_81);"/>
        <path d="M75,140.58c0-1.55,0-3.1,0-4.65,0-.07.4-.32.4-.4,0-.15-.4,0-.4-.3,0-1.27-.24-7.36,0-8.01.04-.1.46-.17.59-.3,1.62-1.56,7.7-4.46,10.18-6.33,14.59-10.98,24.66-28.13,28.37-45.97,3.3-15.84,1.11-32.79-.4-48.73,7.08,1.13,14.36,1.49,21.35,2.67.68,17.41,3.1,33.92-.4,51.21-5.13,25.35-18.64,40.31-40.83,52.49-3.04,1.67-16.18,8.29-18.88,8.3Z" style="fill: url(#Naamloos_verloop_82);"/>
        <path d="M19.05,28.09c-1.22,22.63-3.99,44.64,4.35,66.33,8.57,22.27,29.7,34.42,51.6,40.83,0,.3.4.14.4.3,0,.07-.4.32-.4.4,0,1.55,0,3.1,0,4.65-3.75.02-21.02-9.36-25.01-11.86-19.06-11.97-30.26-26.41-34.89-48.73-3.6-17.33-1.38-34.12-.4-51.6.13-.19,3.79-.23,4.35-.3Z" style="fill: url(#Naamloos_verloop_83);"/>
        <g>
          <path d="M75,15.23l.59,111.7c-.13.12-.56.2-.59.3-.24.64,0,6.74,0,8.01-21.9-6.41-43.03-18.55-51.6-40.83-8.34-21.69-5.57-43.7-4.35-66.33,19.59-2.28,37.51-5.68,55.95-12.85Z" style="fill: url(#Naamloos_verloop_79);"/>
          <path d="M65.41,25.32c.26,0,.53,0,.79,0-1.5,13.67-6.99,26.68-12.36,39.24s-11.02,23.94-16.51,35.88c-4.17-7.01-8.37-14.51-10.58-22.44-4.04-14.49-1.76-30.05-1.38-44.88l40.04-7.81Z" style="fill: #b8c9e3;"/>
        </g>
      </g>
    </g>
    <g id="Generatief_object-2" data-name="Generatief object">
      <path d="M89.09,113.44c-1.28.6-2.56,1.15-3.91,1.57.3-.16,1.11-1.23,1.39-1.57,2.01-2.38,4.18-5.82,5.04-8.83,1.4-4.89.47-10.11-1.35-14.74-.21-.05-.58,2.46-2,2.7-3.08.51-5.51-5.59-6.39-7.87-2.23-5.77-3.3-11.93-4.57-17.96-1.42,6.83-4.42,13.28-8.83,18.66-3.11,3.79-7.39,6.75-8.61,11.83-1.33,5.56,1.53,11.6,5.04,15.79.38.45.81.88,1.22,1.3.09.25-1.33-.2-1.44-.26-4.08-2.19-10.27-9.34-11.87-13.48-2.85-7.37-1.54-14.21,2.65-20.7,1.5,3.09,3.15,5.34,6.91,4.09,4.6-1.53,9-9.87,10.96-14.13,1.32-2.87,2.28-5.9,3.44-8.83,1.25,3.03,2.31,6.16,3.61,9.18,2.22,5.17,8.82,20.92,15.48,11.39l.96-3.57c2.36,6.6,3.92,13.88,2.35,20.88-1.29,5.75-5.53,11.1-10.31,14.4l.22.17Z" style="fill: url(#Naamloos_verloop_64);"/>
      <path d="M89.09,113.44l-.22-.17c4.77-3.3,9.02-8.64,10.31-14.4,1.57-7,.01-14.27-2.35-20.88l-.96,3.57c-6.66,9.52-13.26-6.22-15.48-11.39-1.3-3.01-2.36-6.14-3.61-9.18-1.16,2.93-2.12,5.96-3.44,8.83-1.96,4.27-6.35,12.61-10.96,14.13-3.67,1.16-5.61-1.46-6.91-4.44-.21.46-.79,1.06-1,1.44,0,0,.14.09.09.17-3.31,5.95-4.97,13.06-1.74,19.44,1.6,4.14,7.79,11.29,11.87,13.48.1.06,1.53.51,1.44.26.15.16.53.3.35.52-16.66-5.08-22.79-20.46-15.48-36.14,1.51-3.23,3.83-6.4,6.05-9.18.18.02.92,3.03,1,3.44.34,1.64.48,4.79,1.13,6.18.97,2.08,3.62-.87,4.44-1.83,2.69-3.15,5.17-8.62,6.26-12.61,1.36-5.01,1.5-10.26,2.39-15.35,4.8,5.11,9.23,11.11,11.96,17.61,1.49,3.56,2.56,8.54,5.13,11.48,2.74,3.14,2.64-.12,3.65-2,.67-1.24,2.68-3.43,4.22-3,1.7.48,3.88,5.31,4.48,6.91,5.09,13.72.78,26.79-12.61,33.1Z" style="fill: url(#Naamloos_verloop_65);"/>
      <path d="M72.39,115.09c1.17.16,2.09.33,3.31.35.98.02,1.66-.08,2.61-.17,2.17-.21,4.32-.65,6.44-1.13l-.61,1.13c-.36.05-.71.21-1.04.26-.15.02-.3.07-.43.09-.08.01-.18-.01-.26,0-.17.03-.25.08-.26.09-5.21.76-9.85.71-14.96-.7-.07-.34-.27-.66-.43-.96,1.91.22,3.75.78,5.65,1.04Z" style="fill: #e6522b;"/>
      <path d="M65.69,113.18c.23.28.48.69.87.61.05.1.14.2.17.26.16.3.36.62.43.96-.23-.06-.47-.1-.7-.17.18-.22-.19-.36-.35-.52-.41-.43-.84-.85-1.22-1.3l.74.61.04-.43Z" style="fill: #c18364;"/>
      <path d="M85.7,113.96c-.11.15-.84,1.01-.7,1.13-.57.63-.8.16-.87.17l.61-1.13s.06,0,.09,0c.29-.07.53-.25.87-.17Z" style="fill: #d4d1cd;"/>
      <path d="M86.57,113.44c-.28.33-1.09,1.41-1.39,1.57-.02.01-.06-.01-.09,0-.04.02-.1,0-.09.09-.14-.13.58-.98.7-1.13.14-.18.36-.39.52-.61l.35.09Z" style="fill: #e08357;"/>
      <path d="M83.09,115.52l-.04.26-.39-.17c.13-.02.29-.06.43-.09Z" style="fill: #d4d1cd;"/>
      <path d="M82.39,115.61l.04.35-.3-.26s.09-.06.26-.09Z" style="fill: #d4d1cd;"/>
      <path d="M85,115.09c-.01-.09.05-.07.09-.09.02.1-.08.08-.09.09Z" style="fill: #d4d1cd;"/>
      <path d="M86.57,113.44l-.35-.09c2.28-3.19,4.25-6.98,3.65-11.05-.53-3.57-4.07-5.21-6.26-7.7-3.87-4.38-5.91-10.58-6.87-16.27-.26,0-.2.5-.26.65-.34.91-.64,1.86-1.04,2.74-4.28,9.38-18.09,17.04-11.31,28.75.23.66,1.12,2.16,1.57,2.7l-.04.43-.74-.61c-3.51-4.19-6.38-10.23-5.04-15.79,1.22-5.08,5.5-8.04,8.61-11.83,4.41-5.38,7.41-11.83,8.83-18.66,1.27,6.03,2.34,12.19,4.57,17.96.88,2.28,3.32,8.38,6.39,7.87,1.42-.23,1.8-2.75,2-2.7,1.81,4.63,2.75,9.85,1.35,14.74-.86,3-3.03,6.44-5.04,8.83Z" style="fill: url(#Naamloos_verloop_66);"/>
      <path d="M62.39,83.95c-3.76,1.25-5.41-1-6.91-4.09-4.19,6.49-5.5,13.33-2.65,20.7-3.23-6.38-1.57-13.49,1.74-19.44.05-.09-.09-.17-.09-.17.21-.38.79-.98,1-1.44,1.31,2.97,3.24,5.6,6.91,4.44Z" style="fill: #f2ad6f;"/>
      <g>
        <path d="M72.13,114.39c-.28.36.32.32.26.7-1.91-.27-3.75-.82-5.65-1.04-.03-.06-.12-.16-.17-.26-3.42-6.65-2.49-8.79,1.39-14.66,2.19-3.31,4.8-6.35,7.05-9.61-1.43,7.43-16.16,20.13-2.87,24.88Z" style="fill: url(#Naamloos_verloop_73);"/>
        <path d="M84.83,114.13s-.06,0-.09,0c-2.12.48-4.27.92-6.44,1.13.99-.62,2.12-.98,3.09-1.65,9.07-6.32.32-14.37-3.7-20.48-.85-1.29-1.78-2.74-2.35-4.13,1.37,1.42,2.71,2.9,4,4.39,2.19,2.53,7.58,8.73,7.92,11.92.32,2.99-1.19,6.2-2.44,8.83Z" style="fill: url(#Naamloos_verloop_74);"/>
        <path d="M75.7,115.44c-1.21-.02-2.13-.18-3.31-.35.06-.38-.54-.33-.26-.7,1.05.38,2.17.54,3.26.78.13.03.35.08.3.26Z" style="fill: #f39136;"/>
        <path d="M75,89.43v.09c-2.25,3.26-4.86,6.3-7.05,9.61-3.88,5.86-4.81,8-1.39,14.66-.39.08-.64-.33-.87-.61-.45-.53-1.33-2.04-1.57-2.7-.36-1.03-.65-3.41-.52-4.48.37-2.98,8.93-14.37,11.39-16.57Z" style="fill: #cbb19e;"/>
        <path d="M89.87,102.3c.6,4.07-1.37,7.86-3.65,11.05-.16.22-.39.43-.52.61-.34-.08-.58.11-.87.17,1.24-2.63,2.75-5.84,2.44-8.83-.34-3.18-5.72-9.38-7.92-11.92-1.29-1.49-2.63-2.97-4-4.39-.21,0-.33.42-.35.43-2.46,2.2-11.03,13.59-11.39,16.57-.13,1.07.16,3.45.52,4.48-6.78-11.71,7.03-19.37,11.31-28.75.4-.88.71-1.83,1.04-2.74.6,5.53,2.43,11.65,6.18,15.87,2.07,2.33,5.9,4.16,6.78,7.22.22.74.28,1.57.26,2.35.49-.43-.07-1.55.17-2.13Z" style="fill: url(#Naamloos_verloop_75);"/>
        <path d="M89.87,102.3c-.25.58.31,1.7-.17,2.13.02-.78-.04-1.6-.26-2.35-.89-3.06-4.71-4.89-6.78-7.22-3.75-4.22-5.57-10.34-6.18-15.87.06-.15,0-.65.26-.65.96,5.68,3.01,11.88,6.87,16.27,2.2,2.49,5.74,4.13,6.26,7.7Z" style="fill: #ecdabf;"/>
        <g>
          <path d="M78.31,115.26c-.95.09-1.62.19-2.61.17.04-.18-.18-.23-.3-.26-1.09-.24-2.21-.41-3.26-.78-13.29-4.75,1.44-17.45,2.87-24.88v-.09s.14-.44.35-.43c.57,1.39,1.5,2.84,2.35,4.13,4.02,6.11,12.76,14.17,3.7,20.48-.97.67-2.1,1.03-3.09,1.65Z" style="fill: url(#Naamloos_verloop_67);"/>
          <g>
            <path d="M72.17,100.65c-.1,1.18.27,2.35.22,3.52-.09,2.17-1.44,4.09-.96,6.35.06.29.83,2.14,1.13,1.3-.07-1.01-.46-1.89-.13-2.91.66,1.59,2.99,2.78,4.48,1.7-3.34-1.59.74-5.64-.65-8.31,1.15.61,2.05,1.78,2.22,3.09.08.66-.38,2.8.74,2.3.84-.37,1.35-2.31,1.17-3.17.89,1.68.35,4.12-.52,5.74-.15.29-1.64,1.92-1,1.96.87-.5,1.63-1.12,2.3-1.87l.87-1.91c.32,3.63-1.28,6.24-5.09,6.39-2.05.08-4.64-.34-5.7-2.3-1.81-3.36.93-5.68.87-8.87-.02-.98-.56-2.04.04-3Z" style="fill: #fdf1c3;"/>
            <path d="M75.3,93.95c2.77,3.76-.82,8.28.09,12.35-.83-.94-1.55-2.53-1.61-3.78-.14-3,2.91-5.38,1.52-8.57Z" style="fill: #fdf1c3;"/>
            <path d="M72.7,103.61c1.49,1.77,1.46,3.72,1.39,5.91-2.21-1.05-.74-3.98-1.39-5.91Z" style="fill: #fdf1c3;"/>
            <path d="M77.65,98.39c.22.75.09,1.45.39,2.22.24.62.95,1.2,1.13,2s.13,1.73-.13,2.48c-.51-2.43-2.68-4.06-1.39-6.7Z" style="fill: #fdf1c3;"/>
            <path d="M72.96,96.82c.45,1.16.41,2.37-.17,3.48.05-1.15-.45-2.44.17-3.48Z" style="fill: #fdf1c3;"/>
          </g>
        </g>
      </g>
    </g>
  </g>
  <g id="Generatief_object-3" data-name="Generatief object">
    <path d="M13.12,25.5l-.4.1c-1.79,25.31-4.69,52.61,7.91,75.72,11.23,20.59,32.96,32.32,53.87,41.02,23.14-8.74,46.47-22.18,56.84-45.77,8.17-18.57,7.37-37.04,6.33-56.84.76-.18,1.28.05,1.58-.79,1.02,20.29,1.6,39.91-6.92,58.82-10.68,23.71-34.24,36.98-57.43,46.16-.74.74-.16,6.83-.1,8.11.03.52-.05.9-.2,1.38-20.81-8.45-43.43-20.31-56.94-38.85C-2.29,87.17,2.08,50.4,2.05,17.99c3.92,1.94,7.19,5.59,11.07,7.51Z" style="fill: #b6b7ba;"/>
    <path d="M147.56,20.56c1.29,10.48.82,27.99.4,38.85-.59,15.1-3.07,30.77-9.69,44.38-.11-.58.06-.79-.79-.49-12.29,24.49-38.08,39.01-62.67,48.73-.06-1.27-.64-7.37.1-8.11,23.19-9.19,46.75-22.45,57.43-46.16,8.52-18.91,7.94-38.53,6.92-58.82-.22-4.38-.4-8.76-.59-13.15l-1.78.1c-.04-.13.11-.41-.2-.4,1.56-.23,9.75-7.39,10.38-7.32.39.49.41,1.71.49,2.37Z" style="fill: url(#Naamloos_verloop_93);"/>
    <path d="M136.68,16.21c.21,1.09-1.4.83-2.08.79-6.43-.4-16.98-2.89-23.53-4.35-12.27-2.74-24.31-6.61-36.18-10.68l-.3,8.3c-8.48,3.2-17.12,6.2-25.9,8.5-11.69,3.06-23.63,4.96-35.59,6.72-3.89-1.92-7.15-5.57-11.07-7.51l.49-.79C27.07,14.82,51.24,9.27,74.31.79c20.34,6.85,41.08,12.34,62.38,15.42Z" style="fill: #dadbdd;"/>
    <path d="M136.68,16.21c1.48.21,10.41.78,10.77,1.19.29.32,0,2.58.1,3.16-.08-.67-.11-1.89-.49-2.37-.63-.08-8.82,7.08-10.38,7.32-.13.02-.27,0-.4,0-21.08-2.81-41.83-7.67-61.68-15.22l.3-8.3c11.87,4.07,23.91,7.94,36.18,10.68,6.55,1.46,17.1,3.95,23.53,4.35.67.04,2.28.3,2.08-.79Z" style="fill: #a3a5a9;"/>
    <path d="M138.27,103.79c-12.22,25.15-38.54,39.94-63.66,49.62.15-.49.22-.86.2-1.38,24.6-9.72,50.38-24.25,62.67-48.73.85-.3.68-.09.79.49Z" style="fill: #808285;"/>
    <path d="M139.25,38.95c-.3.84-.83.61-1.58.79-.16-3.04,0-11.49-.79-13.84l1.78-.1c.19,4.38.37,8.77.59,13.15Z" style="fill: #b6b7ba;"/>
    <g>
      <path d="M13.12,25.5c.21.1.41.89,1.19.59-.16.51.2.99.2,1.38-.01,31.45-6.8,58.23,16.21,84.42,8.3,9.45,17.59,15.42,28.67,21.15,4.95,2.56,9.95,4.98,15.12,7.12,31.07-11.43,55.51-29.24,60.79-63.96,2.56-16.81-.2-31.81-.2-48.34v-1.58l1.19-.79c.13,0,.27.02.4,0,.3-.01.15.26.2.4.79,2.35.63,10.8.79,13.84,1.04,19.8,1.84,38.27-6.33,56.84-10.37,23.59-33.7,37.03-56.84,45.77-20.91-8.7-42.65-20.43-53.87-41.02-12.6-23.11-9.7-50.41-7.91-75.72l.4-.1Z" style="fill: #383334;"/>
      <path d="M74.6,10.28c19.85,7.55,40.6,12.42,61.68,15.22l-1.19.79c-7.39-1.03-14.82-1.92-22.14-3.36-12.82-2.52-25.7-6.36-37.86-11.07-8.32,3.36-16.93,5.71-25.6,7.91-.71.17-.63-.43-.79-.99,8.78-2.3,17.42-5.3,25.9-8.5Z" style="fill: #575c60;"/>
      <path d="M48.71,18.78c.16.55.08,1.16.79.99-10,2.53-20.15,4.89-30.45,5.93-1.58.16-3.15.46-4.74.4-.78.3-.98-.49-1.19-.59,11.95-1.76,23.9-3.66,35.59-6.72Z" style="fill: #676d72;"/>
      <path d="M135.1,27.88c0,16.53,2.76,31.52.2,48.34-5.28,34.72-29.72,52.53-60.79,63.96-5.17-2.13-10.17-4.56-15.12-7.12l4.74-2.17h.59l10.18,4.15c15.36-5.55,31.67-12.86,42.41-25.6,19.18-22.75,16.1-54.65,13.44-82.34,1.39.13,3.26-.05,4.35.79Z" style="fill: #d0251c;"/>
      <path d="M19.05,27.28c-1.42,27.6-6.2,59.06,13.44,81.65-.03.05.03.15,0,.2-.42.83-1.26,1.95-1.78,2.77C7.7,85.71,14.49,58.93,14.5,27.48l4.55-.4c0,.07,0,.13,0,.2Z" style="fill: #e44433;"/>
      <path d="M64.13,130.88l-4.74,2.17c-11.08-5.73-20.37-11.71-28.67-21.15.52-.82,1.36-1.94,1.78-2.77,8.45,9.86,19.84,16.6,31.63,21.75Z" style="fill: #e44433;"/>
      <path d="M135.1,26.29v1.58c-1.09-.84-2.96-.66-4.35-.79-5.9-.57-11.76-1.4-17.6-2.37,0-.06,0-.13,0-.2-.07-.53-.17-1.05-.2-1.58,7.32,1.44,14.75,2.34,22.14,3.36Z" style="fill: #ab3125;"/>
      <path d="M19.05,25.7v1.38l-4.55.4c0-.4-.35-.88-.2-1.38,1.6.07,3.17-.24,4.74-.4Z" style="fill: #8c2d26;"/>
      <path d="M112.96,22.93c.03.53.13,1.06.2,1.58-13.12-1.95-25.85-5.86-38.45-9.89-17.97,6.41-36.64,10.62-55.65,12.65,0-.07,0-.13,0-.2v-1.38c10.3-1.04,20.45-3.4,30.45-5.93,8.68-2.2,17.29-4.55,25.6-7.91,12.16,4.71,25.04,8.55,37.86,11.07Z" style="fill: #e45833;"/>
      <path d="M130.75,27.09c2.66,27.7,5.74,59.6-13.44,82.34-10.74,12.74-27.04,20.06-42.41,25.6l-10.18-4.15c2.13-1.12,4.34-2.17,6.52-3.16,43.54-19.71,48.23-60.02,41.91-103,5.84.97,11.69,1.8,17.6,2.37Z" style="fill: #e44433;"/>
      <path d="M71.24,127.72c-2.19.99-4.4,2.04-6.52,3.16h-.59c-11.79-5.15-23.18-11.89-31.63-21.75.03-.05-.03-.15,0-.2,1.62-3.22,3-6.58,4.84-9.69,4.1,5.36,8.48,10.64,13.64,15.03,6.21,5.27,13.43,9.09,20.26,13.44Z" style="fill: #e45833;"/>
      <g>
        <path d="M113.16,24.52c0,.06,0,.13,0,.2,6.32,42.98,1.63,83.29-41.91,103-6.84-4.35-14.05-8.17-20.26-13.44-5.17-4.39-9.54-9.66-13.64-15.03-1.85,3.11-3.22,6.47-4.84,9.69-19.64-22.59-14.86-54.06-13.44-81.65,19.01-2.04,37.68-6.24,55.65-12.65,12.6,4.03,25.34,7.93,38.45,9.89Z" style="fill: url(#Naamloos_verloop_94);"/>
        <g>
          <path d="M61.06,25.11c5.35-.32,4.75,1.9,4.05,6.23-1.77,11.07-8.53,25.92-13.05,36.38s-9.44,21.07-14.93,31.14c-14.54-19.32-14.09-43.08-11.76-66.13l1.68-1.09c10.8-.64,23.57-5.89,34.01-6.52Z" style="fill: url(#Naamloos_verloop_98);"/>
          <g>
            <path d="M72.33,48.83c5.54,5.75,9.09,11.01,12.36,18.29.8,1.79,4.06,12.38,6.23,12.16,1.96-2.93,3.66-5.79,6.92-7.71,4.69,7.65,7.44,16.43,5.04,25.4-2.13,7.98-9.15,13.15-15.52,17.69l7.41-7.61c6.87-9.07,5.96-19.65,2.08-29.75-4.71,14.39-12.08,1.89-15.32-5.24-.48-1.04-4.69-12.97-5.44-12.75-1.88,6.73-4.15,14.5-8.8,19.87-4.19,4.84-9.77,6.03-11.96-1.09-3.96,8.16-6.46,15.78-1.48,24.22,2.97,5.03,8.49,9.39,13.25,12.65-11.07-4.38-20.34-13.74-19.38-26.49.48-6.38,4.83-15.19,9.49-19.57.61.58.27,9.1,2.47,9.98,3.6.9,8.61-9.39,9.59-12.16,1.99-5.64,2.25-11.99,3.06-17.89Z" style="fill: url(#Naamloos_verloop_99);"/>
            <path d="M83.3,114.08c3.16-2.19,5.9-5.12,6.33-9.09.63-.37.49-2.73.4-3.26-.62-3.63-4.71-5.92-6.92-8.5-3.53-4.13-5.38-9.26-6.23-14.53-.18.16-.32.21-.49.4-.66.67-2.79,5.23-3.76,6.62-6.6,9.49-18.1,18.35-3.36,28.37.52.36.88.93,1.68.99.24.25.14.36-.2.4-1.39.13-6.25-4.04-7.22-5.24-4.21-5.25-5.1-11.77-1.78-17.69,4.45-5.04,8.95-8.86,11.86-15.03.15-.33.97-1.05.4-1.38,1.46-3.27,2.24-6.86,3.56-10.18.48,4.87,4.72,23.73,9.19,25.6,2,.84,3.56-1.94,3.86-1.68,1.19,4.41,2.19,7.01,1.38,11.66-1.06,6.16-4.77,12.65-11.27,14.04.87-.5,1.74-.9,2.57-1.48Z" style="fill: url(#Naamloos_verloop_100);"/>
            <path d="M89.63,104.98c-.43,3.97-3.17,6.91-6.33,9.09l-.59-.4c12.15-6.96-1.99-18.12-6.13-24.52-.24-.37-1.13-2.39-1.29-2.37-1.67,3.25-4.22,5.89-6.23,8.9-3.87,5.79-6.82,13.17.59,17.99l-.4.4c-14.74-10.02-3.24-18.88,3.36-28.37.97-1.4,3.1-5.95,3.76-6.62l1.19,5.24c.79,8.21,12.87,13.14,12.06,20.66Z" style="fill: #f7b637;"/>
            <path d="M76.58,89.16c4.14,6.39,18.28,17.56,6.13,24.52-3.93,2.25-9.19,2.51-13.05,0-7.41-4.83-4.47-12.2-.59-17.99-.09,1.6-2.6,4.09-.2,4.94-.67,1.39-1.88,3.13-2.17,4.65-2.26,11.72,18.02,12.63,18.58,1.38.24-4.9-6.24-12.94-9.09-17.1l.4-.4Z" style="fill: #fcd782;"/>
            <path d="M73.62,77.5c-2.91,6.16-7.42,9.99-11.86,15.03,3.1-5.52,9.04-9.29,11.86-15.03Z" style="fill: #fdf2bb;"/>
            <path d="M73.62,77.5c.07-.14.18-.9.4-1.38.57.33-.24,1.06-.4,1.38Z" style="fill: #fdf2bb;"/>
            <path d="M89.63,104.98c.81-7.52-11.27-12.45-12.06-20.66l-1.19-5.24c.18-.18.32-.23.49-.4.84,5.28,2.7,10.4,6.23,14.53,2.21,2.58,6.3,4.87,6.92,8.5.09.54.24,2.89-.4,3.26Z" style="fill: #fef8da;"/>
            <path d="M76.58,89.16l-.4.4c-.12-.17-.83-1.18-.99-1.09-1.77,4.21-4.35,8.07-6.33,12.16-2.4-.85.11-3.34.2-4.94,2.01-3.01,4.55-5.65,6.23-8.9.16-.02,1.04,2,1.29,2.37Z" style="fill: #fddb52;"/>
            <g>
              <path d="M76.19,89.56c2.85,4.16,9.34,12.2,9.09,17.1-.56,11.24-20.84,10.34-18.58-1.38.29-1.52,1.5-3.25,2.17-4.65,1.98-4.09,4.55-7.95,6.33-12.16.16-.1.87.92.99,1.09Z" style="fill: #f7b637;"/>
              <path d="M77.97,100.83c-.42-.1-.75,1.54-.79,1.98l-2.77-.49c-.2,2.87-2.16,4.42-1.78,7.41.04.34.75,1.5.49,1.58l-2.67-3.56c-.06-2.2,1.29-2.92,1.58-4.25.47-2.16-1-5.58,1.09-7.81.59,7.64,2.21.94,2.67-1.88.1,1.75,1.5,3.21,1.98,4.74.16.5.05,1.81.2,2.27Z" style="fill: #fcd782;"/>
              <path d="M70.45,107.75l2.67,3.56c.25-.09-.45-1.24-.49-1.58l3.16-.4c.02.66.16,1.21.49,1.78l.79-1.58,1.78,1.38.69-1.48c.81-.32-.1.84.3.89.2.03,2.26-2.71,2.47-3.16-.04.71.1,1.61,0,2.27-1.01,6.57-11.65,6-11.86-1.68Z" style="fill: #fef8da;"/>
              <path d="M77.97,100.83c.6,1.88.85,3.63,2.27,5.14,1.06-1.07.82-2.73,1.38-3.95.9-.08.73,4.44.69,5.14-.21.45-2.27,3.19-2.47,3.16-.39-.05.51-1.21-.3-.89l-.69,1.48-1.78-1.38-.79,1.58c-.33-.57-.47-1.12-.49-1.78-.08-2.17,1.24-3.18,1.58-4.65.12-.54-.27-1.19-.2-1.88.04-.44.38-2.07.79-1.98Z" style="fill: #f7b637;"/>
              <path d="M77.17,102.81c-.07.69.32,1.34.2,1.88-.34,1.47-1.66,2.48-1.58,4.65l-3.16.4c-.38-2.99,1.58-4.55,1.78-7.41l2.77.49Z" style="fill: #fde5a2;"/>
            </g>
          </g>
        </g>
      </g>
    </g>
  </g>
</svg>
