<?xml version="1.0" encoding="UTF-8"?>
<svg id="Laag_1" data-name="Laag 1" xmlns="http://www.w3.org/2000/svg" xmlns:xlink="http://www.w3.org/1999/xlink" viewBox="0 0 146.16 103.48">
  <defs>
    <linearGradient id="Naamloos_verloop_2" data-name="Naamloos verloop 2" x1="93.13" y1="25.52" x2="111.8" y2="54.21" gradientUnits="userSpaceOnUse">
      <stop offset="0" stop-color="#7b6760"/>
      <stop offset="1" stop-color="#a6958b"/>
    </linearGradient>
    <linearGradient id="Naamloos_verloop_3" data-name="Naamloos verloop 3" x1="112.73" y1="30.23" x2="122.07" y2="47.54" gradientUnits="userSpaceOnUse">
      <stop offset="0" stop-color="#8f7e77"/>
      <stop offset="1" stop-color="#a6958b"/>
    </linearGradient>
  </defs>
  <g id="Generatief_object" data-name="Generatief object">
    <path d="M12.89,101.92c5.28.7,10.91.38,16.33.39-.09.79.16.53.69.59,1.31.14,3.99.12,5.31,0,.54-.05.78.19.69-.59,1.83,0,3.68,0,5.51,0-.09.79.16.53.69.59,1.77.19,3.54.17,5.31,0,.54-.05.78.19.69-.59.07,0,.13,0,.2,0-.15.85.74.86.59,0,15.67,0,31.35.03,47.02,0-.23.75,2.62.79,3.05.79.33,0,2.77-.07,2.46-.79.13,0,.26,0,.39,0-.15.85.74.86.59,0,.13,0,.26,0,.39,0-.15.85.74.86.59,0,3.56-.01,27.41.56,28.63-.2.67-.41.42-1.83-.1-2.36,2.63,1.09.85,3.34-1.28,3.54-38.82-.1-77.73.69-116.48-.39-.19-.07-1.17-.84-1.28-.98Z" style="fill: #fffcf6;"/>
    <path d="M16.63,97l-.2-.2s.15-.07.2.2Z" style="fill: #fffcf6;"/>
    <path d="M129.56,99.36c-.19-.08-.13-.06-.2-.2.07.03.23-.02.2.2Z" style="fill: #fffcf6;"/>
    <g>
      <g>
        <path d="M133.1,95.04c-.74.84-1.48.79-2.46,1.18-17.58-.2-35.51-.85-52.93-.98-1.34,0-2.81.72-4.23.39.03-.45.19-.97.2-1.18l20.95-.2c-1.35,1.94.38.23.59.2.06,0,1.12.4,1.18.39.13,0,.41-.63.79-.59.16.01-.26.46.2.59,1.36.39,1.37-.35,2.56-.79l-.39.98,1.57-.98-1.08,1.08c.56.63,2.08-1.17,2.26-1.08.22.1-.28.4-.1.49.72.38.84.08.89.1.19.07.01.59.2.59.49,0,2.66-2.02,2.56-.39.33.01,2.05-.41,2.16-.39.09,0-.17.57.2.59.1,0,1.07-.79,1.18-.79.14,0,.11,1.95,1.97.39,1.02,1.39,1.92-.54,3.34-1.38.12.23-1.74,1.96-.98,1.97,1.13-.92,1.24-1.46,2.66-2.16-.15.24-.98,1.23-.69,1.38l2.36-1.77.59,1.18.59-.79.49.39c-.67-.04-.66.94-.1.59.2-.12.05-.55.1-.59.11-.09,1.39-.79,1.48-.79.72,0-.75.72,0,.98.52-.59,1.04-.73,1.77-.79l-.89.89c.04.13.48.14.59.1-.26.21-1.18,1.42-1.48,1.77.77-.6,3.11-1.34,2.36-2.56-.05.62-.72.65-.89.79.35-.12.6-1.47,1.87-1.18-.61,1.46.61-.1.79,0v1.18c.63-.61,1.9-1.36,2.75-1.18.21.04-.32.48,0,.59.28.1.51-.4.59-.39.7.08,1.06.71,2.07-.1l-.59-.49c-.2-.35.19-.93.2-.98,1.2,1.57,3.86,1.07,2.75,3.74Z" style="fill: #8f2714;"/>
        <path d="M129.36,98.18c-2.54-.57-5.14,0-7.67,0-5.36,0-10.75-.22-16.13-.2-.21-.58.57-.56.89-.59.24-.02,5.96.49,4.33-.39l-37.28-.79c0-.19-.01-.4,0-.59,1.42.33,2.89-.4,4.23-.39,17.42.13,35.35.79,52.93.98.98-.39,1.72-.34,2.46-1.18-1.12,2.7-3.82.67-3.74,3.15Z" style="fill: #0e0504;"/>
        <path d="M54.8,96.22c.69,0,1.39-.2,2.16-.2l-.2.59c-1,.03-1.58.59-1.67.59-.1,0-.76-.59-1.77-.59-.19,0-.33.59-.39.59-.08,0-.51-.59-.59-.59-2.09-.04-4.39.57-6.3.59-8.37.08-16.84-.5-25.18,0,.97.89-.98,1.01-1.28,1.77-1.12.05-2.02.06-3.15.2-.04-.41.22-2.06.2-2.16-.05-.27-.19-.18-.2-.2-.17-.34-.35-.15-.39-.2-.22-.23-.58-.26-.3-.59,1.26.29,2.57.04,3.84,0,11.75-.32,23.5.22,35.22.2Z" style="fill: #2a120f;"/>
        <path d="M22.72,92.48c-.58.02-1.42-.2-1.67-.2-.09,0-.5.59-.59.59-.07,0-.45-.96-1.18-.39.88.96-.62.17-.49,1.08.09.66,1.11.47,1.18.49.41.12,1.15-.17.89.59-1.54.3-3-.35-4.03,1.08l2.75.3c-1.27.04-2.58.29-3.84,0-.29.33.08.36.3.59-4.19.45-3.74-4.73-.2-4.92.58-.03.34.4.49.39,1.97-.06,4.63-.24,6.39.39Z" style="fill: #bb7e53;"/>
        <path d="M132.32,81.26c-1.77.67-2.74-.73-3.54-.98l.39-1.97c.63-.02.37.23.89.2.07,0,1.09-.78,1.28-.79,1.74-.11,2.43,2.34.98,3.54Z" style="fill: #a25b36;"/>
        <path d="M129.36,98.18c0,.25-.06.87,0,.98-.97-.46-6.2-.19-7.67-.2v-.79c2.53,0,5.14-.57,7.67,0Z" style="fill: #46302d;"/>
        <path d="M61.49,97c.76.06.64.58.69.59,2.77.53,8.25-.59,11.31-.39.36.02,1.2.76,1.67.2l-.59.79c1.02-.4,3.76.55,3.34-.79l.98.79c7.58.08,15.14-.18,22.72-.2l-.39.98c-18.48.09-35.95,0-54.3,0l-1.87-.39c1.5-.35,3.76.27,5.12,0,.7-.14.49-.07.49-.79,2.7-.09,5.36-.02,8.07-.2.42-.03,1.73-.48,2.75-.59Z" style="fill: #fffcf6;"/>
        <path d="M50.66,97.79c0,.72.21.65-.49.79-1.35.27-3.61-.35-5.12,0l1.87.39c-8.63,0-17.35-.25-25.97,0,.03-.89.74-1.07,1.48-1.18,6.94-1.03,20.27.27,28.23,0Z" style="fill: #e7c39c;"/>
        <path d="M105.56,97.99c5.38-.02,10.78.19,16.13.2v.79c-6.82-.02-13.65-.03-20.46,0l.39-.98c1.31,0,2.63,0,3.94,0Z" style="fill: #a6958b;"/>
        <g>
          <path d="M101.23,98.97c6.82-.03,13.65-.02,20.46,0,1.47,0,6.7-.26,7.67.2.07.13,0,.12.2.2.32.14,1.54.05,2.36.39.52.53.76,1.95.1,2.36-1.22.76-25.07.19-28.63.2-.2,0-.4,0-.59,0-.13,0-.26,0-.39,0-.2,0-.4,0-.59,0-.13,0-.26,0-.39,0-1.83,0-3.68,0-5.51,0-15.67.03-31.35,0-47.02,0-.2,0-.4,0-.59,0-.07,0-.13,0-.2,0-2.23,0-4.46,0-6.69,0-1.83,0-3.68,0-5.51,0-2.23,0-4.46,0-6.69,0-5.42-.01-11.05.31-16.33-.39-1.6-2.18,2.29-2.6,3.54-2.75,1.13-.14,2.02-.15,3.15-.2.46-.02.92.01,1.38,0,8.62-.25,17.34,0,25.97,0,18.36,0,35.82.09,54.3,0Z" style="fill: #0e0504;"/>
          <path d="M61.19,100.74c.49-.07.56.54.2.59-.15.02-.77-.51-.2-.59Z" style="fill: #46302d;"/>
        </g>
        <path d="M118.54,81.85c-.32,1.09,1.15,1.36.39,1.77-.14-.05-.41.03-.59,0-5.44-.84-6.91,6-2.16,7.48-.02,0,.07.37-.1.39-2.47.39-5.48-.11-7.87.2-.27.03-.79.2-.69.59-11.28-.02-22.59,0-33.84.2,0-.19-.2-.21-.2-.39,0-.13,0-.26,0-.39,2.68.09,5.32.07,7.87-.39.3-.05.52-.13.79-.2,1.32-.31,2.05.04,3.34-1.18-.6.8-1.13,1.17-1.97,1.67,1.08,0,2.06.24,3.15.3,2.71.13,5.21-.22,7.77-.39.13,0,.33.06.98,0,.87-.08,2.27.22,3.05-.39,1.29.3.92-.19.98-.2.8-.04,1.14.39,2.26-.2,2.4-1.25,2.04-6.36.3-6.89v-.2c1.41-.59,2.91.3,3.15-1.77,4.49.02,8.87-.28,13.38,0Z" style="fill: #5e1b0f;"/>
        <path d="M88.24,81.66c-.61,1.83,1.7.86,2.26.79.61-.08,1.91.89,2.07-.79,4.2-.03,8.39.18,12.59.2-.24,2.07-1.74,1.18-3.15,1.77-1.58-1.41-5.3.56-5.9,2.46-.64,2.02.27,4.52,2.36,5.02-.78.61-2.18.31-3.05.39-.65.06-.86,0-.98,0-2.56.18-5.06.53-7.77.39l.98-10.03c.16-.01.22-.18.59-.2Z" style="fill: #a23e1d;"/>
        <path d="M118.94,83.62c.07.02.72.34.79.39,3.33,2.72-.44,8.8-2.95,6.89-.06-.05-.69-1.18-.79-1.38,1.01-.91,2.13-3.14,1.18-4.33.11-.18.24-.36.2-.59.32-.31.55-.75.98-.98.19.03.45-.05.59,0Z" style="fill: #8f2714;"/>
        <path d="M85.69,81.66c.1-.02,1.41.24,1.97.2l-.98,10.03c-1.09-.05-2.07-.29-3.15-.3.84-.5,1.37-.87,1.97-1.67,1.69-2.27.88-5.97-1.77-6.49-.51-1.34.37-.65,1.08-.98.08-.04.25-.58.3-.59.21-.06.27-.15.59-.2Z" style="fill: #c56933;"/>
        <path d="M118.35,83.62c-.44.24-.66.67-.98.98-1.67,1.6-2.24,2.02-1.57,4.33.04.13.16.51.2.59.09.2.72,1.33.79,1.38.04.78-.47.16-.59.2-4.75-1.47-3.28-8.32,2.16-7.48Z" style="fill: #0e0504;"/>
        <path d="M120.31,78.51c-.14.08-2.96,2.31-1.87,2.16l2.46-2.36c.2-.03.3-.31.39-.1l-.2.69c-.38.26-1.6,1.48-.89,1.77.16.06,2.14-2.12,2.46-2.36.18-.04.4.03.59,0l-2.26,2.56c1.3-.15,2.17-2.13,3.64-1.67l-2.36,2.07c-2.12.1-4.26-.06-6.39,0-.33-.3.12-.65.1-.79l1.97-1.48c.06-.38-.57-.12-.79-.1-1.11.12-1.8,1.86-2.75,1.08,1.57-1.48,3.87-2.41,5.9-1.48Z" style="fill: #8f2714;"/>
        <path d="M84.51,80.48c-.04.23.19.18.2.2.29,1.1.41.15.98.98-.33.05-.38.14-.59.2h-11.41c0-.18-.2-.21-.2-.39s.16-.67,0-.98c.07,0,.13,0,.2,0,3.3-.06,7.7.38,10.82,0Z" style="fill: #5e1b0f;"/>
        <path d="M129.17,78.31l-.39,1.97c-.33-.11-.45.27-.69.2-.09-.03-.18-.88-1.57-.59-.41.08-1.55,1.3-1.77,1.38-.56.19-1.73-.04-2.46,0l2.36-2.07c-1.47-.46-2.34,1.52-3.64,1.67l2.26-2.56c1.97-.28,3.95.05,5.9,0Z" style="fill: #a23e1d;"/>
        <path d="M119.72,84.02c-.07-.06-.71-.37-.79-.39.76-.41-.72-.68-.39-1.77.63.04,3.55-.24,3.74.3-.33,1.14-1.89,1.13-2.56,1.87Z" style="fill: #5e1b0f;"/>
        <path d="M92.57,81.66c-.16,1.68-1.45.71-2.07.79-.57.07-2.88,1.04-2.26-.79,1.42-.08,2.9.01,4.33,0Z" style="fill: #c35020;"/>
        <path d="M122.67,78.31c-.32.24-2.3,2.43-2.46,2.36-.72-.29.5-1.51.89-1.77.78-.53.74-.4,1.57-.59Z" style="fill: #a23e1d;"/>
        <path d="M120.9,78.31l-2.46,2.36c-1.09.15,1.73-2.09,1.87-2.16.24-.13.3-.16.59-.2Z" style="fill: #a23e1d;"/>
        <path d="M44.76,82.05c.12,1.04-.03.83-.89.98-3.78.67-9.31-.58-13.28.1l13.58.69c-3.05,1.68-3.28,5.34-.39,7.08-1.84.44-3.65.37-5.9.39-2.66.03-5.63.14-8.26,0,3.35-1.58,3.46-6.26.2-7.87-.46-.23-.9-.25-1.38-.39-.81-.23-1.91.43-1.38-.98,5.36-.01,10.76.03,16.13,0,.53,0,1.05,0,1.57,0Z" style="fill: #e17324;"/>
        <path d="M27.05,82.05c-.54,1.42.57.75,1.38.98-.57.63-1.86.72-2.46,1.18-2.17,1.67-1.85,6.06.89,6.89l-8.36.2c.01-1.32-.06-2.62-.1-3.94l3.54-.1c-1.31-1.45.18-2.73,1.77-2.95l-1.38-.79.79-1.48c1.31,0,2.63,0,3.94,0Z" style="fill: #a23e1d;"/>
        <path d="M37.48,92.08c2.38-.02,4.73.21,7.08.2.59,0,1.18,0,1.77,0l-.49,1.18,14.26.59c-3.12-.03-6.31-.13-9.44-.2-2.26-.05-4.54.06-6.79,0-.06,0,.07-.37-.79-.39-.15,0,.05.41-.39.39-.1,0-1.15-.59-1.77-.39.37.37.83.21.2.79-.04-.25-1.49-.4-1.57-.39-.32.03-1.64.48-2.56.39-.08,0-.17-.54-.39-.59-.32-.07-.04.72-.79.39-.38-.17-.07-.69-.3-.89-.43-.38-.83.48-.89.49-.41.12-1.22.17-1.67.2v-.3l-.3-.1v.2l.3.2s.06.4-.1.39c-.61-.04-3.58-2.98-3.34-.2l-1.18-1.18c-.45,1.72-.62.17-.98,0-.48-.22.02.55-.39.79-.05.03-.99-.21-1.08-.2-.02-.09-.17-.36-.2-.39-.39-.41-.37,0-.39,0-.15-.04-.33.35-.49.2-.29-.28.12-.48.1-.49-.38-.12-1.21.19-.79-.3,4.47-.18,8.89-.36,13.38-.39Z" style="fill: #f4e0c2;"/>
        <path d="M29.61,91.3c-.3-.02-.95-.15-1.38-.2-.43-.3-1.22-1.32-1.38-1.77,1.39-1.01,1.77-3.33,1.57-4.92.43-.35,1-.57,1.38-.98,3.26,1.61,3.15,6.29-.2,7.87Z" style="fill: #8f2714;"/>
        <path d="M19.38,82.05c1.23-.27,2.52,0,3.74,0l-.79,1.48,1.38.79c-1.59.22-3.08,1.5-1.77,2.95l-3.54.1c-.04-1.74.22-3.47,0-5.21.36-.41.72-.04.98-.1Z" style="fill: #8f2714;"/>
        <path d="M35.12,81.07c2.76.04,5.5.34,8.26.39l-.2.59c-5.38.03-10.77-.01-16.13,0-1.31,0-2.63,0-3.94,0-1.22,0-2.51-.27-3.74,0l-.39-.79c5.36.2,10.81-.27,16.13-.2Z" style="fill: #5e1b0f;"/>
        <path d="M29.81,83.43c-.38.42-.95.63-1.38.98-1.7,1.39-2.33,2.82-1.57,4.92.16.45.94,1.47,1.38,1.77-.22-.02-.49.27-1.38,0-2.73-.83-3.05-5.21-.89-6.89.6-.47,1.89-.55,2.46-1.18.48.14.92.17,1.38.39Z" style="fill: #0e0504;"/>
        <path d="M17.22,78.31c.57.22.92.67,1.57.98,1.16,1.42-.21,1.32-1.38,1.77l.1-.59c-1.6.98-2.61.77-3.84-.69,1.03-1.62,1.7-2.21,3.54-1.48Z" style="fill: #bb7e53;"/>
        <path d="M22.72,92.48c.44-.02.96.02,1.38,0-.42.48.41.17.79.3.02,0-.39.22-.1.49.16.15.34-.24.49-.2h.39s.17.3.2.39c-.32.04-.02.35-.49.39-.08,0-.35-.52-.59-.39-.14.08.51.95-.39.79-.51-.57-1.44-.5-1.38-1.38-.5.48.04.42-.49.98-.03.03-.64-.09-.79.3l.69.69c-.85.28-2.12-2.38-2.46-.79-.07-.02-1.09.17-1.18-.49-.12-.92,1.37-.13.49-1.08.74-.56,1.11.4,1.18.39.09,0,.5-.59.59-.59.25,0,1.09.22,1.67.2Z" style="fill: #d98646;"/>
        <path d="M48.7,89.92c-.46.67-.97.81-1.38,1.38-1.18.02-3.33-.6-2.75.98-2.35.01-4.71-.21-7.08-.2l.39-.79c2.26-.03,4.06.04,5.9-.39.28-.07.72.31,1.18-.2.94.89,2.73-.25,3.74-.79Z" style="fill: #5e1b0f;"/>
        <path d="M73.68,94.45c0,.21-.17.73-.2,1.18-.01.19,0,.4,0,.59v.98c-3.07-.2-8.55.92-11.31.39-.04,0,.07-.53-.69-.59.9-.1,5.75-.04,6-.2.12-.07.09-2.56-.1-2.75,2.02-.04,4.48.05,6.3-.39,0,.26,0,.53,0,.79Z" style="fill: #e7c39c;"/>
        <path d="M122.67,93.86c.16-.14.84-.17.89-.79.75,1.22-1.59,1.96-2.36,2.56.3-.35,1.22-1.56,1.48-1.77Z" style="fill: #a25b36;"/>
        <path d="M119.72,93.46s.1.47-.1.59c-.56.35-.57-.63.1-.59Z" style="fill: #db9c64;"/>
        <path d="M105.56,97.99c-1.31,0-2.63,0-3.94,0-7.58.02-15.15.27-22.72.2l-.98-.79c.42,1.34-2.32.38-3.34.79l.59-.79c-.47.56-1.31-.17-1.67-.2v-.98l37.28.79c1.63.88-4.09.37-4.33.39-.31.03-1.09.01-.89.59Z" style="fill: #a25b36;"/>
        <path d="M22.53,93.86c.69,1.62,1.42.54,2.07.59.8.07.98-.02,1.38,0,.23.01,4.66,1.05,4.43,0,1.39.71,1.58-.01,1.67,0,.16.02.93.59.98.59.39,0,1.12-.58,1.18-.59.2-.02.59,1.19.98-.39,1.13,2.08,2.05.83,3.34.79.26,0,.93.4.98.39.09,0,.2-.36.59-.39.14-.01-.03.44.39.39.32-.03.55-.58.59-.59.38-.11.28.43.39.39.15-.04.17-.78.98-.98l.2.98c.46-1.13,1.4-.03,2.16,0,5.04.21,10.21-.2,15.25,0v.59c-.13,0-.26,0-.39,0-.55.02-1.68-.23-1.57.39-.25-.03-.53,0-.79,0-.12-.63-3.31-.71-2.56.2-11.72.02-23.47-.52-35.22-.2l-2.75-.3c1.03-1.43,2.5-.78,4.03-1.08.26-.76-.48-.47-.89-.59.34-1.6,1.61,1.07,2.46.79l-.69-.69c.15-.38.76-.26.79-.3Z" style="fill: #8f2714;"/>
        <path d="M57.35,96.02c.26,0,.53-.03.79,0,.8.09,1.08-.22.89.79-.34.29-1.46-.02-1.87,0-.02,0,.1-.21-.39-.2l.2-.59c.13,0,.26,0,.39,0Z" style="fill: #5e1b0f;"/>
        <path d="M57.35,96.02c-.13,0-.26,0-.39,0-.78,0-1.47.2-2.16.2-.75-.9,2.44-.83,2.56-.2Z" style="fill: #a25b36;"/>
        <path d="M60.11,94.05c2.45.03,4.84.04,7.28,0,.19.19.22,2.68.1,2.75-.26.16-5.1.1-6,.2-1.02.11-2.34.56-2.75.59,0-.81-2.78.33-1.57-.79.41-.02,1.53.29,1.87,0,.19-1.01-.09-.7-.89-.79-.11-.63,1.03-.38,1.57-.39l.69.59c.65-.22,1.19.02,1.77,0,.15,0,.04-.38.2-.39.09,0,1.34.84,1.67-.1-1.25-.24-2.66-.12-3.94-.1v-.59l2.07.2c1.83-1.02-4.27-.58-4.53-.59-.87-.03-2.37.02-3.15,0-.05,0-.23-.37-.98-.39-.06,0-.12.02-.59,0-.78-.04-2.09.54-2.26-.39,3.13.07,6.33.16,9.44.2Z" style="fill: #a25b36;"/>
        <g>
          <path d="M56.76,96.61c.49-.01.37.2.39.2-1.21,1.12,1.57-.02,1.57.79-2.7.18-5.36.11-8.07.2-7.96.27-21.3-1.03-28.23,0-.74.11-1.45.29-1.48,1.18-.46.01-.92-.02-1.38,0,.3-.76,2.25-.88,1.28-1.77,8.35-.5,16.82.08,25.18,0,1.9-.02,4.21-.63,6.3-.59.08,0,.51.59.59.59.06,0,.2-.59.39-.59,1.01,0,1.67.59,1.77.59s.67-.56,1.67-.59Z" style="fill: #a23e1d;"/>
          <polygon points="56.07 97 56.37 97.1 56.07 97.4 55.98 97.3 56.07 97" style="fill: #d98646;"/>
        </g>
        <path d="M67.58,92.08c1.96.01,3.96.12,5.9,0,0,.19.2.21.2.39,0,.39,0,.79,0,1.18-1.82.44-4.28.36-6.3.39-2.44.04-4.83.03-7.28,0l-14.26-.59.49-1.18c7.08-.03,14.16-.24,21.25-.2Z" style="fill: #f4e0c2;"/>
        <path d="M83.72,83.43c2.66.52,3.46,4.22,1.77,6.49-1.3,1.22-2.03.87-3.34,1.18-.32-.43-.56-.89-.79-1.38,1.06-1.18,1.51-2.9,1.38-4.43-.05-.6-.18-.06-.39-.49.3-.35.49-.75.98-.89l-.79-.49c.3-.03.91-.05,1.18,0Z" style="fill: #8f2714;"/>
        <path d="M102.02,83.82c1.75.52,2.11,5.64-.3,6.89-1.12.58-1.47.16-2.26.2-.38-.33-.42-.86-.59-1.18,1.05-1.46,1.49-3.37.98-5.12.69-.5,1.05-1.12,2.16-.79Z" style="fill: #8f2714;"/>
        <path d="M102.02,83.62v.2c-1.12-.33-1.48.29-2.16.79-2.14,1.55-2.13,3.04-.98,5.12.17.32.21.85.59,1.18-.07,0,.3.5-.98.2-2.09-.49-3-3-2.36-5.02.6-1.9,4.33-3.87,5.9-2.46Z" style="fill: #0e0504;"/>
        <path d="M82.54,83.43l.79.49c-.5.14-.69.53-.98.89-1.59,1.91-2.17,2.41-.98,4.92.23.48.46.95.79,1.38-.26.06-.49.14-.79.2-1.02-.35-1.91-.96-2.36-1.97-.07-.17-.19-.37-.2-.39-.76-2.74.88-5.23,3.74-5.51Z" style="fill: #0e0504;"/>
        <path d="M81.36,91.3c-2.55.46-5.19.48-7.87.39,0-.33,0-.66,0-.98,0-.2,0-.39,0-.59,1.78,0,3.95.05,5.51-.79.46,1.01,1.35,1.61,2.36,1.97Z" style="fill: #c56933;"/>
        <path d="M73.49,90.71c0,.33,0,.66,0,.98,0,.13,0,.26,0,.39-1.95.12-3.94.01-5.9,0,.17-.44-.17-.92-.2-1.18,2.04-.05,4.07-.08,6.1-.2Z" style="fill: #c9a98e;"/>
        <g>
          <path d="M107.53,92.28c7.53.01,15.08.04,22.63,0l.59.49c-1,.8-1.37.18-2.07.1-.08,0-.31.49-.59.39-.32-.11.21-.55,0-.59-.85-.18-2.13.57-2.75,1.18v-1.18c-.18-.1-1.39,1.46-.79,0-1.27-.28-1.52,1.06-1.87,1.18-.11.04-.55.03-.59-.1l.89-.89c-.73.06-1.25.2-1.77.79-.75-.26.72-.98,0-.98-.08,0-1.36.7-1.48.79l-.49-.39-.59.79-.59-1.18-2.36,1.77c-.29-.15.54-1.14.69-1.38.01-.02.52-.18.3-.39-.41-.1-.27.38-.3.39-1.42.71-1.52,1.24-2.66,2.16-.76,0,1.11-1.74.98-1.97-1.42.83-2.32,2.77-3.34,1.38-1.86,1.56-1.82-.39-1.97-.39-.11,0-1.08.79-1.18.79-.37-.02-.11-.58-.2-.59-.11-.01-1.84.41-2.16.39.11-1.62-2.07.39-2.56.39-.18,0,0-.52-.2-.59-.04-.01-.16.28-.89-.1-.18-.1.32-.39.1-.49-.19-.09-1.7,1.71-2.26,1.08l1.08-1.08-1.57.98.39-.98c-1.19.43-1.2,1.18-2.56.79-.45-.13-.04-.58-.2-.59-.38-.04-.65.58-.79.59-.06,0-1.12-.4-1.18-.39-.21.03-1.94,1.74-.59-.2l-20.95.2c0-.26,0-.53,0-.79,0-.39,0-.79,0-1.18,11.25-.2,22.56-.22,33.84-.2Z" style="fill: #db9c64;"/>
          <path d="M116.38,93.07s-.11-.49.3-.39c.23.21-.28.37-.3.39Z" style="fill: #5e1b0f;"/>
          <polygon points="108.41 93.66 108.71 93.76 108.61 94.05 108.51 93.95 108.41 93.66" style="fill: #a23e1d;"/>
        </g>
        <path d="M79,77.92s-.06.82.39,0c.8-.29,1.57-.05,2.36,0l.3,1.38c.91-1.75,2.3-.77.59,0,.74.39.86.13,1.48-.2l.3.39h1.38l-.3.79c-.38.1-.59.15-.98.2-3.12.38-7.52-.06-10.82,0-.09-1.22.72-1.72.98-2.75,1.07.05,3.48-.1,4.33.2Z" style="fill: #a23e1d;"/>
        <path d="M87.65,78.12l-.49,1.18c.07-.06.19-.26.3-.2-.03.02.07.39-.3.59-.17.09-.49-.35-.79-.2-.14.07-.3.64-.89.79l.3-.79h-1.38l-.3-.39c.56-.3.37-.38.39-.39.73-.51,1.27-1.68,1.08-.2l.89-.49c-.81,2.45.38-.03.49-.1.19-.11.36.3.69.2Z" style="fill: #d98646;"/>
        <g>
          <path d="M111.07,77.33c.19.82,1.46-.03,1.18,1.28-.97.36-2.17,2.14-3.05,2.46-1.7.61-10.68-.1-13.18-.2-3.84-.15-7.56-.7-11.31-.2,0-.01-.23.03-.2-.2.4-.05.6-.1.98-.2.59-.15.75-.71.89-.79.3-.16.62.29.79.2.36-.2.27-.57.3-.59.06.03.27-.02.39,0,.02,0-.11.49.3.39.36-.47-.26-.36-.3-.39-.03-.03.07-.4-.1-.39-.13,0-.27.38-.3.39-.1-.06-.22.14-.3.2l.49-1.18c.94-.3,6.6-.56,8.07-.59,3.44-.07,6.91.09,10.33.39l-.1-.59c1.7.05,3.42,0,5.12,0Z" style="fill: #a23e1d;"/>
          <g>
            <path d="M102.9,78.31c.16-.02.44-.05.49.1-4.58,4.22-2.54.12-.49-.1Z" style="fill: #c35020;"/>
            <path d="M108.51,79.89c-1.41,1.32-1.59.81-.39-.39l.39.39Z" style="fill: #8f2714;"/>
            <path d="M108.51,79.89l-.39-.39c.34-.35.91-.74,1.38-.89-.17.39-.68,1-.98,1.28Z" style="fill: #c35020;"/>
            <path d="M88.74,78.31c.37.05.29.66-.2.59-.57-.08.05-.61.2-.59Z" style="fill: #d98646;"/>
            <path d="M87.85,79.1s.65-.08.3.39c-.41.1-.27-.39-.3-.39Z" style="fill: #d98646;"/>
            <path d="M87.85,79.1c-.12-.02-.34.03-.39,0,.02-.01.16-.39.3-.39.17,0,.07.36.1.39Z" style="fill: #d98646;"/>
          </g>
        </g>
        <path d="M117.17,85.2c-.59.91-.29,2.84-1.38,3.74-.66-2.31-.1-2.73,1.57-4.33.04.23-.08.41-.2.59Z" style="fill: #e7c39c;"/>
        <path d="M115.99,89.53c-.04-.08-.16-.46-.2-.59,1.08-.9.79-2.83,1.38-3.74.95,1.19-.17,3.42-1.18,4.33Z" style="fill: #e6b17b;"/>
        <path d="M85.1,81.85s-.22.55-.3.59c-.71.33-1.59-.35-1.08.98-.27-.05-.88-.03-1.18,0-2.86.28-4.5,2.77-3.74,5.51l-5.31.59c0-2.58.12-5.11.2-7.67h11.41Z" style="fill: #c56933;"/>
        <path d="M64.63,81.26c2.93.04,5.91.38,8.85.2,0,.19.2.21.2.39-.07,2.56-.2,5.1-.2,7.67,0,.2,0,.39,0,.59s0,.39,0,.59c-2.03.12-4.06.14-6.1.2-.11-1.04-.22-1.57-.39-2.56-.3-1.68-.2-4.59-2.56-5.12-.29-.07-1.44-.05-1.77,0l-15.54.2c-.18-.06-1.87-.22-1.97-.2v-1.18c4.75-.03,9.51.06,14.26-.2.08-.66-1.74-.13-2.36-.2-.16-.02-.08-.39-.1-.39l.2-.2c2.21.61,5.17.16,7.48.2Z" style="fill: #f4e0c2;"/>
        <path d="M73.49,77.33c.19.58.74.37,1.18.39-.26,1.03-1.07,1.54-.98,2.75-.07,0-.13,0-.2,0-1.8.04-6.82-.1-8.17.2-.1.02-.69.38-.69.59-2.3-.03-5.27.41-7.48-.2-.86-.24-.65-.3-1.18-.59-.6-.33-1.86-1.3-2.56-1.77l-.39-.39c-.09-.08-1.35-.51.39-.98h20.07Z" style="fill: #fffcf6;"/>
        <path d="M73.49,80.48c.16.32,0,.8,0,.98-2.95.18-5.92-.15-8.85-.2,0-.21.58-.57.69-.59,1.35-.3,6.36-.16,8.17-.2Z" style="fill: #7b6760;"/>
        <path d="M47.12,83.43s.69.47.79.59c-1.22-.5-1.33.03-2.16.59-.19.13-.2-.01-.59.39-1.35,1.4-1.55,2.17-.98,3.94.04.13.17.54.2.59.11.21.54,1.14.59,1.18-.46.5-.9.13-1.18.2-2.89-1.74-2.66-5.4.39-7.08.21-.12.93-.58.98-.59.1-.02,1.79.14,1.97.2Z" style="fill: #0e0504;"/>
        <path d="M45.15,82.05v1.18c-.06.01-.77.47-.98.59l-13.58-.69c3.97-.68,9.5.57,13.28-.1.85-.15,1,.06.89-.98.13,0,.26,0,.39,0Z" style="fill: #e17324;"/>
        <path d="M45.15,82.05c-.13,0-.26,0-.39,0-.52,0-1.05,0-1.57,0l.2-.59c2.75.05,5.5-.05,8.26,0,1.38.03,2.85.12,4.23.2.34.02.98.17.89-.39.07,0,.13,0,.2,0,.02,0-.07.38.1.39.62.06,2.44-.46,2.36.2-4.75.26-9.51.17-14.26.2Z" style="fill: #5d4a47;"/>
        <g>
          <path d="M23.91,76.93l.2.2c1.02.36,4.48-.24,5.71-.2.57.02,2.36.37,3.54.39,3.92.08,7.88.01,11.81,0,1.32,0,3.36.8,4.33-.39,1.08.35,2.25.06,3.34,0l.59.39c-1.74.48-.48.9-.39.98.07.06-.09.07.39.39.7.47,1.96,1.45,2.56,1.77-2.54.27-5.21.29-7.77.2-.73-.03-6.19-.28-6.49-.39-.14-.05-1.34-2.45-2.26-1.67l1.87,1.67c-1.04.26-1.47-.72-2.16-1.38l-.49.49,1.38.79c-.7.75-2.93-2.13-3.34-1.38l1.97,1.38c-.33.67-2.91-1.7-3.44-1.87l1.87,1.87-3.25-1.67,1.87,1.48c.05.44-.51.31-.79.3-.81-1.46-1.98-1.43-3.34-1.57-.48-.05-.67.01-.79,0-1.2-.14-1.8.02-3.15-.2-.33-.05-.26-.49-1.57-.2-.19.04-.23.2-.39.2-.72-.29-2.08-.66-2.75,0-.06-.02-.14.02-.2,0-.55-.15-.84-.14-1.38-.2.14-.51.72-1,1.18-1.18.24-.09.99.04,1.38-.2Z" style="fill: #5e1b0f;"/>
          <g>
            <path d="M55.98,80.48c.53.29.32.35,1.18.59l-.2.2c-.07,0-.13,0-.2,0-1.67-.12-3.46.01-5.12.2-2.76-.05-5.52.05-8.26,0s-5.51-.36-8.26-.39c-.04-.18-.14-.68-.2-.79.28.01.83.14.79-.3l-1.87-1.48,3.25,1.67-1.87-1.87c.53.17,3.12,2.54,3.44,1.87l-1.97-1.38c.42-.75,2.64,2.13,3.34,1.38l-1.38-.79.49-.49c.69.66,1.12,1.64,2.16,1.38l-1.87-1.67c.92-.78,2.12,1.62,2.26,1.67.31.11,5.76.37,6.49.39,2.56.1,5.23.07,7.77-.2Z" style="fill: #e17324;"/>
            <path d="M41.51,78.31c.83-.17,2.91,0,3.05,1.08l-1.67-.69.69,1.08c-.68.75-1.37-1.09-2.56-.98-.11-.19.45-.48.49-.49Z" style="fill: #c56933;"/>
            <path d="M50.07,78.71s-2.39.62-2.36-.1c.32-.12,2.16-.35,2.26-.3.18.09.07.39.1.39Z" style="fill: #c35020;"/>
            <path d="M46.04,78.51c.14-.06.88-.03,1.08.1-.99.7-1.4-.03-.89,1.48-.74-.11-.77-1.31-.2-1.57Z" style="fill: #c56933;"/>
            <path d="M50.07,78.71c.74-.67,2.2-.82,1.28.39-.77-.63-1.11.02-1.18,0-.17-.05-.08-.39-.1-.39Z" style="fill: #c35020;"/>
            <path d="M53.42,78.71c-.48-.32-.32-.33-.39-.39l.39.39Z" style="fill: #c9a98e;"/>
          </g>
        </g>
        <path d="M25.87,93.46c.09-.01,1.03.22,1.08.2.42-.23-.09-1.01.39-.79.36.17.53,1.72.98,0l1.18,1.18c-.23-2.78,2.74.15,3.34.2.16.01.08-.39.1-.39.45-.03,1.26-.08,1.67-.2.06-.02.46-.87.89-.49.22.2-.09.72.3.89.74.33.47-.46.79-.39.23.05.32.58.39.59.92.08,2.23-.37,2.56-.39.08,0,1.53.14,1.57.39.64-.57.17-.42-.2-.79.62-.2,1.67.39,1.77.39.45.02.24-.4.39-.39.86.03.73.39.79.39,2.24.06,4.53-.05,6.79,0,.17.93,1.48.35,2.26.39.47.02.53,0,.59,0,.75.02.93.39.98.39.78.02,2.28-.03,3.15,0,.25,0,6.36-.43,4.53.59l-2.07-.2c-5.03-.2-10.2.21-15.25,0-.76-.03-1.7-1.13-2.16,0l-.2-.98c-.81.21-.84.94-.98.98-.11.03-.02-.5-.39-.39-.04.01-.27.56-.59.59-.43.04-.25-.41-.39-.39-.39.03-.5.39-.59.39-.05,0-.73-.4-.98-.39-1.3.05-2.21,1.3-3.34-.79-.39,1.59-.79.37-.98.39-.07,0-.79.59-1.18.59-.06,0-.82-.57-.98-.59-.09-.01-.28.71-1.67,0-.04-.02.11-.69-.59-.3.11.31.58.26.59.3.24,1.05-4.2.01-4.43,0-.4-.02-.57.07-1.38,0-.64-.05-1.38,1.03-2.07-.59.54-.57,0-.51.49-.98-.06.88.87.8,1.38,1.38.9.16.25-.71.39-.79.24-.13.52.4.59.39.47-.04.17-.35.49-.39Z" style="fill: #c56933;"/>
        <path d="M66.21,89.72c-.41.53-.9.86-1.28,1.38.78.19,1.8-.18,2.46-.2.03.26.37.74.2,1.18-7.09-.04-14.17.17-21.25.2-.59,0-1.18,0-1.77,0-.57-1.58,1.57-.96,2.75-.98,4.35-.08,8.73.14,13.08,0,.33-.01,1.01.12.89-.39,1.32.6.96.41,1.97.2,1.4-.29,1.79-.7,2.95-1.38Z" style="fill: #5e1b0f;"/>
        <path d="M25.68,93.07h-.39s0-.41.39,0Z" style="fill: #c56933;"/>
        <polygon points="32.96 93.86 32.66 93.66 32.66 93.46 32.96 93.56 32.96 93.86" style="fill: #c56933;"/>
        <g>
          <path d="M21.35,78.31c.54.06.82.04,1.38.2.02.69,2.25,1.55,2.36,1.28-.64-.55-1.33-1.02-2.16-1.28.67-.66,2.03-.29,2.75,0,.09.04,1.39.74,1.48.79.47.25.88,1.05,1.57.98l-2.66-1.97c1.31-.29,1.24.14,1.57.2.11,1.06,1.71,1.38,2.36,1.08.18-.08-.32-.39-.1-.49.73-.34,2.17,1.63,2.46,1.08l-1.57-1.48c.11.01.31-.05.79,0,.08.41,2.04,2.1,1.97,1.28l-.69-.89c.66.38,1.27,1.15,2.07,1.18.06.11.16.61.2.79-5.32-.07-10.78.4-16.13.2l-1.57-.2c1.17-.45,2.53-.35,1.38-1.77.75.36,1.54.72,2.36.89l-2.16-1.67c.48-.61,1.55-.28,2.36-.2Z" style="fill: #a23e1d;"/>
          <g>
            <path d="M18.99,78.51l2.16,1.67c-.82-.16-1.62-.53-2.36-.89-.65-.31-1.01-.76-1.57-.98.61-.59,1.19.05,1.77.2Z" style="fill: #c56933;"/>
            <path d="M30.79,78.71l1.57,1.48c-.29.55-1.73-1.43-2.46-1.08-.22.1.28.41.1.49-.66.3-2.25-.02-2.36-1.08,1.34.22,1.95.06,3.15.2Z" style="fill: #c56933;"/>
            <path d="M34.92,80.28c-.79-.03-1.41-.8-2.07-1.18l.69.89c.07.82-1.89-.87-1.97-1.28,1.36.14,2.54.11,3.34,1.57Z" style="fill: #e17324;"/>
            <path d="M25.68,78.51c.17,0,.2-.15.39-.2l2.66,1.97c-.7.07-1.1-.73-1.57-.98-.09-.05-1.39-.75-1.48-.79Z" style="fill: #c56933;"/>
            <path d="M22.72,78.51c.06.02.14-.02.2,0,.83.26,1.52.73,2.16,1.28-.11.27-2.34-.59-2.36-1.28Z" style="fill: #c56933;"/>
            <path d="M24.59,78.51l2.46,1.67c-.24,0-3.22-1.2-2.46-1.67Z" style="fill: #c56933;"/>
            <polygon points="21.45 80.08 21.74 80.18 21.64 80.48 21.54 80.38 21.45 80.08" style="fill: #d98646;"/>
          </g>
        </g>
        <path d="M26.86,89.33c-.75-2.09-.13-3.52,1.57-4.92.2,1.59-.19,3.91-1.57,4.92Z" style="fill: #e7c39c;"/>
        <path d="M59.32,88.74c.34,1.34.77,1.62,1.97,2.16.12.51-.56.38-.89.39-4.35.14-8.73-.08-13.08,0,.41-.57.92-.71,1.38-1.38.13-.19.77-1.11.79-1.18h9.84Z" style="fill: #d98646;"/>
        <path d="M47.91,84.02c.12.05.31.13.39.2.01,0,.15.15.2.2.91.95,1.25,3.08.98,4.33-.01.07-.65.99-.79,1.18-1.01.54-2.8,1.67-3.74.79-.05-.05-.48-.97-.59-1.18,1.1-1.24,1.85-3.27,1.38-4.92.84-.56.95-1.09,2.16-.59Z" style="fill: #8f2714;"/>
        <path d="M84.51,78.71s-.43.14-.39.39c-.61.32-.73.59-1.48.2,1.71-.77.32-1.75-.59,0l-.3-1.38c1.19.08,3.04-.64,2.75.79Z" style="fill: #c56933;"/>
        <path d="M79.39,77.92c-.46.82-.35.01-.39,0,.12-.02.31.03.39,0Z" style="fill: #e6b17b;"/>
        <path d="M59.71,95.63c.13,0,.26,0,.39,0,1.28-.02,2.69-.15,3.94.1-.33.94-1.58.09-1.67.1-.15.01-.05.39-.2.39-.58.02-1.12-.22-1.77,0l-.69-.59Z" style="fill: #bb7e53;"/>
        <path d="M81.36,89.72c-1.18-2.51-.61-3.01.98-4.92.21.43.34-.11.39.49.13,1.52-.32,3.25-1.38,4.43Z" style="fill: #e6b17b;"/>
        <path d="M98.87,89.72c-1.14-2.08-1.15-3.56.98-5.12.51,1.74.07,3.65-.98,5.12Z" style="fill: #e7c39c;"/>
        <path d="M79,89.33c-1.56.84-3.73.79-5.51.79,0-.2,0-.39,0-.59l5.31-.59s.12.23.2.39Z" style="fill: #a23e1d;"/>
        <path d="M84.11,79.1c-.04-.25.39-.37.39-.39-.02.02.17.1-.39.39Z" style="fill: #8f2714;"/>
        <path d="M66.99,88.35c-.23.48-.46.96-.79,1.38-1.16.68-1.55,1.08-2.95,1.38-.66-.1-1.33-1.04-1.57-1.57,1.39-1.39,1.51-3.1,1.18-4.92.52-.52,1.18-.83,1.57-1.38,2.36.53,2.26,3.44,2.56,5.12Z" style="fill: #8f2714;"/>
        <path d="M62.67,83.23c.33-.05,1.48-.07,1.77,0-.39.55-1.05.86-1.57,1.38-1.66,1.65-2.22,2.67-1.18,4.92.25.53.91,1.47,1.57,1.57-1.01.21-.64.4-1.97-.2-1.2-.54-1.62-.82-1.97-2.16-.4-1.58-.19-3.13.98-4.33.09-.09.37-.38.39-.39.25-.18,1.64-.74,1.97-.79Z" style="fill: #0e0504;"/>
        <path d="M62.67,83.23c-.33.05-1.72.61-1.97.79l-12.4.2c-.09-.07-.28-.15-.39-.2-.1-.12-.74-.57-.79-.59l15.54-.2Z" style="fill: #bb7e53;"/>
        <path d="M67.39,90.9c-.66.02-1.67.39-2.46.2.38-.52.87-.85,1.28-1.38.33-.42.56-.9.79-1.38.17.98.29,1.51.39,2.56Z" style="fill: #d98646;"/>
        <path d="M45.74,84.61c.47,1.65-.28,3.68-1.38,4.92-.02-.05-.15-.46-.2-.59.69-1.05,1.18-2.66.98-3.94.39-.41.4-.26.59-.39Z" style="fill: #db9c64;"/>
        <path d="M44.17,88.94c-.56-1.77-.36-2.54.98-3.94.19,1.27-.29,2.89-.98,3.94Z" style="fill: #d3d1cd;"/>
        <path d="M56.76,81.26c.09.57-.54.41-.89.39-1.38-.07-2.85-.17-4.23-.2,1.66-.18,3.45-.32,5.12-.2Z" style="fill: #bb7e53;"/>
        <path d="M30.4,94.45s-.48.02-.59-.3c.7-.4.55.27.59.3Z" style="fill: #8f2714;"/>
        <path d="M60.3,84.41c-1.18,1.2-1.39,2.75-.98,4.33h-9.84c.27-1.25-.07-3.38-.98-4.33h11.81Z" style="fill: #bb7e53;"/>
        <path d="M60.7,84.02s-.31.31-.39.39h-11.81s-.19-.19-.2-.2l12.4-.2Z" style="fill: #db9c64;"/>
        <path d="M61.68,89.53c-1.04-2.25-.47-3.27,1.18-4.92.33,1.82.21,3.53-1.18,4.92Z" style="fill: #e7c39c;"/>
      </g>
      <g>
        <g>
          <path d="M125.82,40.54c0,.24-.12.74.2.79-.62,1.65-1.37,3.28-1.97,4.92l-1.18-8.56c-.39-.33-.21-2.44-1.18-1.48-.93-5.71-.91-6.11-4.92-10.23-3.19-3.27-6.29-5.55-10.92-6.49,2.38,3,4.48,5.68,6,9.25,4.45,10.44,1.23,15.88,0,26.36-.59.09-.38-.53-.39-.89-.19-7.09-.93-15.36-2.95-22.23-2.23-7.59-9.18-12.8-17.22-12.49-.52.37-.04.5.2.79,3.13,3.71,4.66,3.6,7.57,8.85,2.01,3.62,3.72,7.34,4.13,11.71.48,5.12-.15,10.92-1.18,15.94-.5.3-.34-.11-.39-.39-1.32-7.31-1.36-14.18-6.1-20.56,1.05.37-.37-3.11-.59-3.64-2.28-5.45-6.69-10.37-12.79-11.12-.02-.06.02-.14,0-.2-.2-.62-1.76-4.19-1.57-4.43,1.06-.06,2.09-.17,3.15-.3,6.74-.81,16.38-.5,22.92,0,13.09.99,19.6,11.96,19.18,24.4Z" style="fill: #5d4a47;"/>
          <path d="M58.93,15.74l7.77.39c.22.12-1.15,3.37-1.28,3.74-3.73-.21-8.84,2.25-11.41,5.02-4.52,4.87-4.89,11.53-8.46,16.82-.66.97-1.76,1.94-2.36,2.85-.84,1.27-1.21,3.01-2.36,4.03-.17-6.34.4-11.78,2.95-17.61,0-.02-.29-.18-.2-.39.08-.18.38-.07.39-.1,2.1-4.46,5.39-7.91,8.76-11.41-7.24-.52-13.19,4.45-16.23,10.62s-3.45,14.18-3.74,20.95c0,.16-.39.08-.39.1-.45-5.3-.73-11.6.39-16.82.43-1.99,2.05-4.36,1.97-6.39.47-.63.91-1.36,1.38-1.97,1.13-1.48,3.15-3.57,3.94-5.12.03-.07,1.01-.86.49-1.18-6.19,1.21-11.5,5.19-14.46,10.72-1.38,2.58-4.42,11.14-4.33,13.87-.3-.19-1.17-2.14-1.18-2.26,0-.14.4-.05.39-.2-.14-11.58,5.11-21.86,16.72-25.28.02,0-.07-.35.1-.39.07-.02.87.27,1.38.2,5.75-.85,13.5-.15,19.77-.2Z" style="fill: #46302d;"/>
          <path d="M82.14,20.86c.02.06-.02.14,0,.2.37,1.1,1.53,4.97,2.16,5.61.8.8,4.56,2.63,6,3.84,1.31,1.09,4.22,3.98,5.21,5.31,4.74,6.38,4.78,13.25,6.1,20.56.05.28-.11.69.39.39,1.03-5.02,1.66-10.82,1.18-15.94-.41-4.37-2.12-8.09-4.13-11.71,5.36,6.56,6.85,15.3,8.26,23.51,1.06,6.17.85,13.16,3.54,18.69-.16-5.45.35-10.84.98-16.23,1.23-10.48,4.45-15.92,0-26.36,3.23,5.3,5.71,10.85,6.89,17.02.71,3.73.76,7.6,1.57,11.31-2.31,6.65-4.39,13.41-6.69,20.07-.82,0-1.64.19-2.56.2-1.7,0-3.42.05-5.12,0-.94-.02-4.63.24-5.12-.3l-19.28-55.29.59-.89Z" style="fill: #fffcf6;"/>
          <path d="M111.85,55.1c-.63,5.39-1.14,10.78-.98,16.23-2.69-5.53-2.48-12.52-3.54-18.69-1.41-8.21-2.91-16.95-8.26-23.51-2.92-5.25-4.44-5.14-7.57-8.85-.24-.29-.72-.42-.2-.79,8.04-.31,14.98,4.9,17.22,12.49,2.02,6.87,2.76,15.14,2.95,22.23,0,.36-.2.97.39.89Z" style="fill: url(#Naamloos_verloop_2);"/>
          <path d="M116.77,25.98l1.18,3.44.59-1.18c.55,2.19,1.43,4.3,1.97,6.49.24.98-.02,4.28,1.38,4.03.47,3.34.81,6.71,1.38,10.03-.98,2.75-1.99,5.51-2.95,8.26-.81-3.71-.86-7.58-1.57-11.31-1.18-6.17-3.66-11.72-6.89-17.02-1.52-3.57-3.62-6.25-6-9.25,4.63.94,7.73,3.22,10.92,6.49Z" style="fill: url(#Naamloos_verloop_3);"/>
          <path d="M95.52,35.81c-.99-1.33-3.9-4.22-5.21-5.31-1.44-1.2-5.2-3.03-6-3.84-.64-.64-1.79-4.5-2.16-5.61,6.1.74,10.51,5.67,12.79,11.12.22.53,1.64,4.01.59,3.64Z" style="fill: #7b6760;"/>
          <path d="M121.69,36.21c.12.72.08,1.72.2,2.56-1.39.25-1.14-3.06-1.38-4.03-.53-2.19-1.41-4.31-1.97-6.49l-.59,1.18-1.18-3.44c4.01,4.12,3.99,4.52,4.92,10.23Z" style="fill: #a6958b;"/>
          <path d="M124.05,46.24c-.3.83-.49,1.73-.79,2.56-.57-3.32-.91-6.69-1.38-10.03-.12-.83-.08-1.84-.2-2.56.97-.97.79,1.15,1.18,1.48l1.18,8.56Z" style="fill: #8f7e77;"/>
          <path d="M63.06,26.96c-5.65,16.58-11.61,33.05-17.12,49.68l-.79.69c-3.93.01-7.88.08-11.81,0l-9.25-26.96c1.17-9.47,5.2-15.53,10.62-22.82.08,2.04-1.54,4.4-1.97,6.39-1.13,5.23-.85,11.52-.39,16.82-.11,3.23.91,6.51.98,9.74l.79,2.95c1.09-10.45,2.27-21.1,7.48-30.4.35-.63,1.45-3.03,2.36-2.56-.01.03-.31-.08-.39.1-.1.21.21.37.2.39-2.55,5.83-3.12,11.27-2.95,17.61.02.87.97,10.25,2.07,10.03.21-4.7,1.18-10.19,3.05-14.56,2.58-6.04,9.03-13.01,14.66-16.33.63-.37,1.78-1.2,2.46-.79Z" style="fill: #fffcf6;"/>
          <path d="M40.04,20.47c-.24,0-1.6.15-1.67.2-.34.25-.19.97-.3,1.08-.32.32-2.38,2.01-2.36,2.16.01.1,1.12.22-.2,1.38l.59.3c-.47.61-.91,1.33-1.38,1.97-5.43,7.3-9.46,13.35-10.62,22.82-.58-1.71-2.3-4.78-2.36-6.49-.09-2.73,2.94-11.29,4.33-13.87,2.97-5.54,8.28-9.51,14.46-10.72.51.32-.46,1.11-.49,1.18Z" style="fill: #a6958b;"/>
          <path d="M41.61,33.06c-5.21,9.29-6.38,19.95-7.48,30.4l-.79-2.95c-.08-3.23-1.09-6.51-.98-9.74,0-.02.39.06.39-.1.29-6.77.7-14.81,3.74-20.95.4-.14,1.21.59,1.28.59.5.01,2.35-2.8,2.26-1.08-.03.57-1.71.41-.1,1.87,2.48-3.15.72-.3.89.69.01.07.86.78.79,1.28Z" style="fill: #a6958b;"/>
          <path d="M65.42,19.88c-.79,2.36-1.56,4.73-2.36,7.08-.68-.42-1.83.41-2.46.79-5.63,3.32-12.08,10.3-14.66,16.33-1.11-.06.56-2.33-.39-2.36,3.57-5.3,3.94-11.95,8.46-16.82,2.57-2.77,7.68-5.23,11.41-5.02Z" style="fill: #7b6760;"/>
          <path d="M43.97,30.5c-.91-.47-2.01,1.93-2.36,2.56.07-.5-.77-1.2-.79-1.28-.16-.99,1.6-3.83-.89-.69-1.61-1.46.07-1.3.1-1.87.09-1.71-1.76,1.09-2.26,1.08-.07,0-.88-.73-1.28-.59,3.05-6.17,8.99-11.15,16.23-10.62-3.37,3.5-6.66,6.96-8.76,11.41Z" style="fill: #7b6760;"/>
          <path d="M45.94,44.08c-1.87,4.37-2.84,9.85-3.05,14.56-1.09.21-2.04-9.16-2.07-10.03,1.15-1.03,1.52-2.76,2.36-4.03.6-.91,1.71-1.88,2.36-2.85.95.03-.72,2.3.39,2.36Z" style="fill: #5d4a47;"/>
          <path d="M40.04,20.47c-.79,1.55-2.8,3.63-3.94,5.12l-.59-.3c1.32-1.15.21-1.28.2-1.38-.02-.16,2.04-1.84,2.36-2.16.11-.11-.05-.83.3-1.08.07-.05,1.43-.2,1.67-.2Z" style="fill: #8f7e77;"/>
        </g>
        <g>
          <path d="M135.66,26.96c-1.25,3.08-2.5,6.16-3.74,9.25-4.65,11.62-8.91,22.7-12.79,34.63l-2.36,6.59c-1-.13-2.06.09-3.05.1-.16,0-.08-.39-.1-.39,2.3-6.66,4.38-13.42,6.69-20.07.96-2.75,1.97-5.51,2.95-8.26.3-.83.49-1.73.79-2.56.59-1.64,1.35-3.26,1.97-4.92.08-.21.13-.4.2-.59.46-1.26.88-2.58,1.57-3.74-.24.78-.36,1.54-.79,2.26.85-.48,2.28.91,2.95.39.43-.34,3.36-8.95,3.94-10.23.29-.65,1.09-2.11,1.77-2.46Z" style="fill: #2a120f;"/>
          <path d="M141.96,12.01c-1.59,5.12-4.28,9.99-6.3,14.95-.68.35-1.48,1.81-1.77,2.46-.57,1.28-3.5,9.9-3.94,10.23-.67.52-2.1-.87-2.95-.39.43-.72.55-1.49.79-2.26,3.25-10.58,9.37-22.27,15.15-31.68.48-.04.63.25.59.69-.11,1.1-1.19,4.75-1.57,6Z" style="fill: #46302d;"/>
          <path d="M131.53,73c-1.6,4.08-1.09.76-1.18-1.28,2.8-13.08,5.52-26.16,8.26-39.25.67-3.2,1.51-6.44,2.16-9.64l.49.59.49-.98c-3.4,16.84-7.26,33.52-10.23,50.57Z" style="fill: #46302d;"/>
          <path d="M141.76,22.43l-.49.98-.49-.59c.29-1.42,1.21-3.5-.59-3.64l1.08-.1c.08-.06.88-1.77.89-1.87.05-.55-.58-.52-.59-.59-.04-.53.96-1.17-.39-1.67.28-.89.94-2,.79-2.95.39-1.25,1.47-4.9,1.57-6,.04-.43-.11-.73-.59-.69.38-.62,2.75-5.14,3.05-5.12.57,1.19-.42,2.92-.69,4.23-.08.41-.18.71-.2.79-1.17,5.75-2.2,11.56-3.34,17.22Z" style="fill: #5d4a47;"/>
          <path d="M126.22,40.73c-.07.19-.12.38-.2.59-.31-.04-.2-.55-.2-.79l.39.2Z" style="fill: #fffcf6;"/>
          <path d="M139.99,19.09c-.86,3.09-1.9,6.14-2.75,9.15-.17.6.56.39.39.98-.31,1.08-.67,2.16-.98,3.25-1.51,5.2-3.57,10.23-5.31,15.35-.69,2.03-1.67,4.04-2.36,6.1-1.24-.27-.81,1.91-2.16.59,2-5.45,4.13-10.87,6.1-16.33,1.09-3.02,1.92-6.11,2.95-9.15.09-.28.72-.32.79-.59.16-.62-.52-.42-.39-.79.25-.74.98-1.58.89-2.26.72,1.55,1.02-2,1.28-2.85.14-.46.58-.74.59-.79.09-.28-.03-2.4.98-2.66Z" style="fill: #a23e1d;"/>
          <path d="M121.89,77.13c2.5-7.69,4.5-15.55,7.08-23.22.69-2.06,1.67-4.06,2.36-6.1l1.18.49c-3.8,9.37-5.28,19.46-8.66,28.92-.42.39-1.67-.11-1.97-.1Z" style="fill: #5e1b0f;"/>
          <path d="M128.97,53.91c-2.58,7.67-4.58,15.52-7.08,23.22-.53.02-1.06,0-1.57,0,.33-.99.49-2.77.98-3.64.13-.23.67.03.79-.2.85-1.66,2.85-7.6,3.15-9.44.05-.3.42-1.26-.3-1.08-.36.64-2.47,9.1-3.15,8.85-.19-.58.94-2.18.1-2.46l-2.56,7.97c-.2,0-.4,0-.59,0,2.23-7.72,5.29-15.07,8.07-22.63,1.36,1.32.92-.86,2.16-.59Z" style="fill: #a23e1d;"/>
          <path d="M132.32,38.17c-4.74,12.98-10.29,25.66-14.17,38.96-.05,0-.76.54-.98,0,2.96-7.3,5.14-15.08,7.87-22.53,2.24-6.1,4.97-12.05,7.08-18.2l3.54-8.17c-.92,3.38-2.15,6.66-3.34,9.94Z" style="fill: #a23e1d;"/>
          <path d="M140.78,22.83c-.66,3.2-1.49,6.44-2.16,9.64h-1.97c.32-1.08.67-2.16.98-3.25.17-.6-.56-.39-.39-.98.85-3.01,1.9-6.06,2.75-9.15.38-1.37.75-2.77,1.18-4.13,1.35.5.35,1.15.39,1.67,0,.07.64.04.59.59,0,.1-.8,1.81-.89,1.87l-1.08.1c1.8.14.88,2.22.59,3.64Z" style="fill: #5e1b0f;"/>
          <path d="M132.91,38.17c-1.97,5.46-4.1,10.88-6.1,16.33-2.78,7.56-5.83,14.91-8.07,22.63-.19,0-.4.01-.59,0,3.87-13.3,9.43-25.98,14.17-38.96h.59Z" style="fill: #f4e0c2;"/>
          <path d="M132.12,36.4c-2.11,6.15-4.85,12.1-7.08,18.2-2.73,7.45-4.91,15.23-7.87,22.53-.38-.38,1.68-5.4,1.97-6.3,3.88-11.93,8.14-23.01,12.79-34.63l.2.2Z" style="fill: #e7c39c;"/>
          <path d="M120.31,77.13c-.34,0-.64,0-.98,0l2.56-7.97c.85.28-.29,1.88-.1,2.46.68.25,2.79-8.21,3.15-8.85.71-.18.34.78.3,1.08-.3,1.84-2.3,7.78-3.15,9.44-.12.23-.66-.03-.79.2-.49.87-.65,2.65-.98,3.64Z" style="fill: #d98646;"/>
          <g>
            <path d="M138.61,32.47c-2.75,13.09-5.46,26.17-8.26,39.25.09,2.04-.42,5.36,1.18,1.28-.25,1.46-1.01,3.45-.2,4.72-.19.01-1.2.78-1.28.79-.52.04-.25-.21-.89-.2-1.95.05-3.93-.28-5.9,0-.19.03-.41-.04-.59,0-.84.19-.8.06-1.57.59l.2-.69c-.09-.22-.19.07-.39.1-.29.04-.35.06-.59.2-2.04-.93-4.33,0-5.9,1.48.95.78,1.64-.96,2.75-1.08-.05.57-1.52,1.18-1.57,1.28-.05.09.39.27.39.3.02.14-.43.49-.1.79,2.14-.06,4.27.1,6.39,0,.72-.04,1.9.19,2.46,0,.22-.08,1.36-1.29,1.77-1.38,1.4-.28,1.48.56,1.57.59.24.08.36-.3.69-.2.8.26,1.77,1.65,3.54.98-.58.48-1.82.58-1.97.89-.42.89.16,7.62,0,9.15,0,.05-.39.63-.2.98-7.54.04-15.09.01-22.63,0-.11-.39.42-.56.69-.59,2.39-.3,5.4.19,7.87-.2.17-.03.08-.39.1-.39.12-.04.63.58.59-.2,2.51,1.92,6.28-4.17,2.95-6.89.66-.74,2.22-.73,2.56-1.87-.19-.54-3.11-.26-3.74-.3-4.51-.28-8.89.02-13.38,0-4.2-.02-8.39-.23-12.59-.2-1.43.01-2.9-.08-4.33,0-.37.02-.43.18-.59.2-.56.04-1.87-.21-1.97-.2-.57-.83-.7.11-.98-.98,3.76-.51,7.47.05,11.31.2,2.5.09,11.49.81,13.18.2.88-.32,2.08-2.1,3.05-2.46.28-1.31-.99-.46-1.18-1.28.92,0,1.74-.19,2.56-.2.02,0-.06.4.1.39.99-.01,2.05-.23,3.05-.1l2.36-6.59c-.29.9-2.34,5.91-1.97,6.3.23.54.93,0,.98,0,.19.01.4,0,.59,0s.4,0,.59,0c.35,0,.65,0,.98,0,.51,0,1.05.02,1.57,0,.3,0,1.54.49,1.97.1,3.38-9.47,4.85-19.55,8.66-28.92l-1.18-.49c1.75-5.12,3.8-10.15,5.31-15.35h1.97Z" style="fill: #2a120f;"/>
            <path d="M115.1,78.31c.19-.03.54-.05.69.1.14.2-3.61,2.68-4.13,2.56.51-.51,2.96-2.57,3.44-2.66Z" style="fill: #a23e1d;"/>
            <path d="M113.72,78.12c.28.78-2.26,2.47-3.05,2.46.6-1.26,2.04-1.63,3.05-2.46Z" style="fill: #a23e1d;"/>
            <path d="M115.99,80.48s-.44-.2-.39-.3c.06-.1,1.53-.71,1.57-1.28.22-.02.85-.28.79.1l-1.97,1.48Z" style="fill: #8f2714;"/>
          </g>
          <path d="M141.17,14.96c-.43,1.36-.8,2.76-1.18,4.13-1.01.25-.9,2.38-.98,2.66-.01.05-.45.33-.59.79-.26.85-.56,4.4-1.28,2.85.1.68-.63,1.52-.89,2.26-.13.36.55.17.39.79-.07.27-.69.31-.79.59-1.03,3.04-1.86,6.13-2.95,9.15h-.59c1.2-3.28,2.43-6.56,3.34-9.94l-3.54,8.17-.2-.2c1.24-3.09,2.49-6.17,3.74-9.25,2.02-4.96,4.71-9.83,6.3-14.95.15.95-.51,2.06-.79,2.95Z" style="fill: #db9c64;"/>
        </g>
        <g>
          <path d="M3.44,5.32l-.79.2c-.06-.19,0-1.2-.59-.89.48.3.17,1.61.2,1.77.5,2.58,2.18,7.93,3.15,10.72-.44.32-.32.38-.2.89.76,3.17,1.55,6.37,2.56,9.54-.3,1.28.24,3.1.59,4.43,1.85,6.98,4.24,13.88,6.1,20.86,1,3.74,2.94,15.73,4.33,18.2-.89.01.65,2.94.79,3.05.11.09,1.96-.1,2.36,1.28.12.63.44,1.16.59,1.77-.46.18-1.04.67-1.18,1.18-.81-.09-1.88-.41-2.36.2-.58-.14-1.16-.79-1.77-.2-1.84-.73-2.51-.14-3.54,1.48,1.23,1.46,2.24,1.67,3.84.69l-.1.59,1.57.2.39.79c-.26.06-.62-.31-.98.1.22,1.75-.04,3.48,0,5.21.03,1.32.11,2.61.1,3.94l8.36-.2c.89.27,1.16-.02,1.38,0,.43.05,1.08.18,1.38.2,2.63.14,5.6.03,8.26,0l-.39.79c-4.49.03-8.91.22-13.38.39-.42.02-.93-.02-1.38,0-1.76-.64-4.43-.45-6.39-.39-.15,0,.09-.42-.49-.39-.42-1.26.48-9.35.2-9.74-.23-.32-2.64-.56-2.95-1.97-.53-2.41,2.13-2.23,2.36-2.95-2.52-13.67-5.59-27.35-8.26-41.02.91-1.65.15-5.5-.2-7.57-.51-3.01-1.64-5.99-1.97-9.05h-.59c-.04.38-.16.69-.2,1.08C2.67,13.92,1.11,7.01,0,0c.26-.18,3.17,4.89,3.44,5.31Z" style="fill: #2a120f;"/>
          <path d="M37.68,16.14c-11.62,3.42-16.86,13.7-16.72,25.28,0,.14-.4.05-.39.2,0,.13.88,2.07,1.18,2.26.06,1.71,1.78,4.78,2.36,6.49l9.25,26.96c-1.19-.02-2.97-.37-3.54-.39-.04-.21-.35-.66-.39-.79-2.79-8.53-5.68-17.06-9.05-25.38-.61-2.11-1.49-3.76-2.16-5.71-.32-.93-.65-1.83-.98-2.75s-.64-1.85-.98-2.75c2.53-1.45,2.98-.92,4.13,1.38.95-.41.1-2.97.2-3.84.98-8.99,7.43-19.76,17.12-20.95Z" style="fill: #2a120f;"/>
          <path d="M3.44,5.32c7.16,11.22,12.16,23.2,16.92,35.61-1.16-2.3-1.6-2.83-4.13-1.38-1.29-3.4-6.52-17.73-8.26-19.68-1.74-4.84-3.76-9.48-5.31-14.36l.79-.2Z" style="fill: #46302d;"/>
          <path d="M7.18,36.01c-.59-2.99-3.16-13.34-2.95-15.54.04-.39.16-.7.2-1.08h.59c.33,3.06,1.46,6.04,1.97,9.05.35,2.08,1.11,5.93.2,7.57Z" style="fill: #5d4a47;"/>
          <path d="M11.12,36.8c1.54,4.56,2.75,9.11,4.53,13.67.06.16.64,0,.79.39.61,1.64.48,4.42,1.77,5.8.75,2.58,1.62,5.09,2.36,7.67-.67.5.01.98,0,1.08-.05.34-.59.93-.59.98.06,1.12.92,3.34,1.18,4.62-1.2-.3-1.7,1.17-2.36,0-1.39-2.47-3.33-14.46-4.33-18.2-1.86-6.97-4.25-13.88-6.1-20.86-.35-1.33-.89-3.15-.59-4.43.95,2.99,2.31,6.17,3.34,9.25Z" style="fill: #5e1b0f;"/>
          <path d="M12.89,35.22l4.72,19.08c-2.09-7.14-4-14.34-6.49-21.35l-.79.2c-.08.23,1.62,3.16.79,3.64-1.04-3.08-2.39-6.26-3.34-9.25-1.01-3.17-1.79-6.38-2.56-9.54-.12-.51-.24-.56.2-.89,2.07,5.97,5.23,12.09,7.48,18.1Z" style="fill: #c56933;"/>
          <path d="M2.66,5.51c1.56,4.88,3.58,9.53,5.31,14.36-.18-.2-.3-.41-.49-.59,2.13,5.73,4.4,11.55,6.59,17.31l-.39.2c-.19-.53-.59-1.05-.79-1.57-2.25-6.01-5.4-12.13-7.48-18.1-.97-2.8-2.65-8.14-3.15-10.72-.03-.16.29-1.47-.2-1.77.59-.31.53.7.59.89Z" style="fill: #e7c39c;"/>
          <path d="M23.91,76.93c-.39.23-1.14.11-1.38.2-.15-.61-.47-1.14-.59-1.77-.24-1.3-.49-2.89-.79-4.33-.26-1.29-1.12-3.5-1.18-4.62,0-.06.54-.64.59-.98.01-.1-.67-.58,0-1.08.2.7.77,1.52.98,2.26.43,1.54,1.63,9.66,2.36,10.33Z" style="fill: #8f2714;"/>
          <path d="M21.15,71.03c.29,1.44.54,3.03.79,4.33-.4-1.38-2.25-1.18-2.36-1.28-.13-.11-1.68-3.04-.79-3.05.66,1.17,1.16-.3,2.36,0Z" style="fill: #5e1b0f;"/>
          <path d="M7.97,19.88c1.75,1.95,6.97,16.27,8.26,19.68.34.91.65,1.84.98,2.75-.12.79.31,2.2.98,2.75.68,1.94,1.56,3.6,2.16,5.71.03.11-.03.29,0,.39-.36-.32-.16-1.03-.79-.59-.34-1.06-1.28-2.22-1.38-3.44l-.2.3c-1.36-3.59-2.57-7.23-3.94-10.82-2.19-5.77-4.46-11.58-6.59-17.31.2.18.31.39.49.59Z" style="fill: #bb7e53;"/>
          <path d="M18.2,45.06c-.67-.55-1.1-1.97-.98-2.75.34.92.66,1.83.98,2.75Z" style="fill: #e7c39c;"/>
          <path d="M13.67,36.8c1.92,5.28,3.14,13.58,5.31,17.81.02.05.65.56.79.69.25.9,1.23,5.52,1.38,5.8.3.55.61.08.98.1.55,1.99.81,3.64,1.57,5.61.14.37-.58.94.39.59.28-.46-1.67-4.44-.59-5.12.7,1.76.88,3.7,1.38,5.51.01.05.46.32.59.79.03.09-.15,1.69.3,1.67.22-.01-.13-1.07.49-.69.06.26-.03,1.65,0,1.77.09.38,1.61,4.28,1.57,4.53-.24,1.73-2.64.7-3.74,1.28l-.2-.2c-.73-.67-1.93-8.79-2.36-10.33-.21-.75-.78-1.56-.98-2.26-.74-2.59-1.61-5.09-2.36-7.67-.23-.78-.36-1.59-.59-2.36l-4.72-19.08c.2.53.59,1.04.79,1.57Z" style="fill: #c35020;"/>
          <path d="M17.61,54.31c.23.77.36,1.59.59,2.36-1.29-1.38-1.16-4.16-1.77-5.8-.14-.39-.73-.23-.79-.39-1.77-4.56-2.99-9.11-4.53-13.67.84-.48-.87-3.41-.79-3.64l.79-.2c2.49,7.01,4.4,14.21,6.49,21.35Z" style="fill: #5e1b0f;"/>
          <path d="M18,47.42c.1,2.26,1.08,5.31,1.77,7.87-.14-.12-.76-.64-.79-.69-2.18-4.23-3.4-12.52-5.31-17.81l.39-.2c1.36,3.59,2.57,7.23,3.94,10.82Z" style="fill: #d98646;"/>
          <path d="M19.58,50.57c1.04,3.26,1.56,6.99,2.56,10.62-.37-.02-.69.46-.98-.1-.15-.28-1.13-4.9-1.38-5.8-.69-2.56-1.67-5.61-1.77-7.87l.2-.3c.09,1.23,1.04,2.38,1.38,3.44Z" style="fill: #c35020;"/>
          <g>
            <path d="M20.36,51.16c.26.93.56,1.82.79,2.75,0,.03-.34.1-.2.69.36,1.52,1.11,3.29,1.48,4.82l.69-.59,6.3,17.31c.04.12.36.57.39.79-1.23-.05-4.68.56-5.71.2,1.1-.58,3.5.45,3.74-1.28.03-.25-1.48-4.15-1.57-4.53-.03-.12.06-1.51,0-1.77-.62-.38-.28.68-.49.69-.45.02-.27-1.58-.3-1.67-.13-.47-.58-.74-.59-.79-.5-1.81-.67-3.74-1.38-5.51-1.08.68.87,4.65.59,5.12-.98.35-.25-.22-.39-.59-.76-1.96-1.03-3.62-1.57-5.61-1-3.63-1.52-7.37-2.56-10.62.63-.44.42.27.79.59Z" style="fill: #e17324;"/>
            <path d="M29.41,76.15l-6.3-17.31-1.97-4.92c-.23-.94-.52-1.83-.79-2.75-.03-.11.03-.29,0-.39,3.37,8.32,6.26,16.85,9.05,25.38Z" style="fill: #e7c39c;"/>
            <path d="M23.12,58.83l-.69.59c-.36-1.53-1.12-3.3-1.48-4.82-.14-.59.21-.65.2-.69l1.97,4.92Z" style="fill: #c35020;"/>
            <path d="M22.82,60.01l.39,1.77c-.34.23-.85-1.52-.39-1.77Z" style="fill: #c35020;"/>
          </g>
        </g>
        <g>
          <path d="M70.34,16.53c-1.96,5.81-4.24,11.61-5.9,17.51-.19.69-.63,1.45-.79,2.16-.1.44-.32.92-.39,1.38-3.66,10.18-6.92,20.53-10.62,30.69-.48,1.3-2.72,8.12-3.15,8.66-.96,1.19-3.01.39-4.33.39l.79-.69c5.51-16.63,11.47-33.1,17.12-49.68.8-2.35,1.57-4.73,2.36-7.08.12-.37,1.5-3.62,1.28-3.74l-7.77-.39c2.67-.02,5.32.2,7.97,0,.28-.22.29-.48.49-.79.11,1.2,2.1,1.08,2.95,1.57Z" style="fill: #2a120f;"/>
          <path d="M83.72,16.14c-1.06.13-2.09.23-3.15.3-.19.23,1.37,3.81,1.57,4.43l-.59.89,19.28,55.29c.48.53,4.18.27,5.12.3l.1.59c-3.42-.3-6.89-.46-10.33-.39l.98-.39c.23-.06.41.02.59-.3-.63-1.44-1.27-2.94-1.77-4.43-1.75-5.21-3.47-10.44-5.51-15.54.02-.12-.01-.27,0-.39-.35-.91-.7-1.82-.98-2.75-.8-2.65-1.86-5.25-2.75-7.87-.17-.51-.47-1.02-.59-1.38-.07-.19-.13-.39-.2-.59s-.09-.48-.2-.79c-.08-.23-.12-.56-.2-.79-.08-.24-.38-.56-.39-.59-.13-.39-.26-.79-.39-1.18s-.31-.72-.39-.98c-.39-1.13-.6-2.41-.98-3.54-.11-.33-.28-.64-.39-.98-.4-1.17-.78-2.37-1.18-3.54-.14-.39-.26-.79-.39-1.18-.32-.92-.67-1.83-.98-2.75-.13-.39-.26-.79-.39-1.18-.05-.16-.14-.23-.2-.39-.14-.39-.25-.95-.39-1.38-.05-.16-.14-.23-.2-.39-.81-2.35-1.53-4.74-2.36-7.08l3.25-.59-.1-.59,4.13.2Z" style="fill: #2a120f;"/>
          <path d="M79.59,15.94l.1.59-3.25.59c-.04-.1,0-.22-.2-.2l-2.95-7.87c.02-.52.37-1.23.2-1.87-.93-.02-.4,2.01-.59,2.75-.15.61-.73,2.26-.98,3.05-.22.68-1.19,2.41-1.57,3.54-.85-.49-2.84-.37-2.95-1.57.7-1.06,1.22-4.41,1.77-5.8,1.17-2.96,2.81-5.78,3.74-8.85l.69-.1,6,15.74Z" style="fill: #46302d;"/>
          <path d="M73.29,22.43c-.16,2.41.06,5.03,0,7.48,0,.26,0,.53,0,.79-.06,2.38.35,6.11,0,8.26-.76,4.62-10.37,16.02-10.82,19.77-.24,1.97,3.83,7.81,4.72,10.13.01.03-.38.14-.2.69s1.86,1.85.59,2.36c-.11-.44-.64-.69-.79-.89-.04-.05.02-1.17-.49-1.18-.39,0-.37.59-.59.59-.4,0-2.05-2.1-2.95-1.97.04.41-.37,2.55-.3,2.66.19.27.98-.23.79.69-1.29-.16-2.82-.18-3.84.39-.29.16-.92,1.46-1.18,1.38s.05-1.35-.69-.98c-.39.19-.4,1-.49.98-.2-.04-.37-2.72-2.95-.98l-.3-4.82-.69,1.48-.49-.98c3.71-10.16,6.96-20.51,10.62-30.69-.49,3.19.13,6.54-.39,9.74.12.17.27.17.39,0,1.16-1.63,3.5-7.17,4.33-9.25.93-2.33,4.5-15.01,5.12-15.74.39-.46.16,0,.59.1Z" style="fill: #e7c39c;"/>
          <path d="M57.55,72.61v3.94c-1.5.03-3.18.3-4.72.39-1.09.06-2.26.35-3.34,0,.43-.53,2.67-7.35,3.15-8.66l.49.98.69-1.48.3,4.82c2.58-1.74,2.75.94,2.95.98.09.02.1-.79.49-.98Z" style="fill: #c35020;"/>
          <path d="M90.01,56.47c-1.58.92-2.65,2.88-3.84,4.13-.13.14-.5-.42-.69-.1-.05.09,0,1.43.49,1.28.3-.1,3.97-4.61,4.03-4.92,2.04,5.1,3.76,10.34,5.51,15.54l.2,4.72c-2.49.18-6.11-.19-8.66-.39l-.1-14.76c-.54-.43-1.06,2.46-1.08,2.66-.44,3.74.32,8.28,0,12.1-.19-.02-.4.03-.59,0v-12.69c-.42-.31-.71.47-.79.69-1.23.02-.46.3-.59.69-.06.17-.39.08-.39.1v-4.53c.36-.63.67-1.66.98-2.16,1.1-1.75,2.98-3.72,4.53-5.12.28.94.64,1.84.98,2.75Z" style="fill: #a23e1d;"/>
          <path d="M86.28,45.85c.89,2.62,1.96,5.22,2.75,7.87-1.54,1.4-3.42,3.37-4.53,5.12-.59-.71-.93-1.57-1.38-2.36l4.43-5.12c-1.79,1.29-3.58,3.08-4.43,5.12-.78-1.38-1.71-2.68-2.36-4.13l5.51-6.49Z" style="fill: #c56933;"/>
          <path d="M76.44,17.12c.83,2.35,1.55,4.73,2.36,7.08l-5.51,5.71c.06-2.44-.16-5.07,0-7.48.04-.52.13-3.1.2-3.25.07-.16,2.62-1.52,2.75-2.26.21-.03.16.09.2.2Z" style="fill: #a23e1d;"/>
          <path d="M81.36,31.48c.4,1.17.78,2.37,1.18,3.54l-7.48,7.28c-.55-1.17-1.58-2-1.18-3.34.25-.85,3.84-4.39,4.82-5.31.76-.71,1.77-1.63,2.66-2.16Z" style="fill: #c35020;"/>
          <path d="M82.93,36.01c.39,1.13.6,2.41.98,3.54l-6.3,7.28c-.59-1.06-1.2-2.07-1.77-3.15l7.08-7.67Z" style="fill: #c56933;"/>
          <path d="M84.51,64.74c-.25.7-.54,11.42-.2,11.9.27.21.68.05.98.1.19.03.4-.02.59,0,.38.05.8-.03,1.18,0,2.55.21,6.17.57,8.66.39.3-.02.75.06.98,0l-.98.39c-1.46.03-7.12.29-8.07.59-.33.1-.5-.31-.69-.2-.11.06-1.3,2.54-.49.1l-.89.49c.19-1.48-.35-.32-1.08.2.29-1.43-1.57-.71-2.75-.79-.8-.05-1.56-.29-2.36,0-.09.03-.27-.02-.39,0-.85-.3-3.26-.14-4.33-.2-.44-.02-.99.18-1.18-.39l.39-.2c.98-.13,1.32-.23,1.97-.98l7.67.49c.39-.7-.32-9.32,0-11.12,0-.02.34.07.39-.1.13-.39-.64-.67.59-.69Z" style="fill: #8f2714;"/>
          <path d="M79.39,25.98l-5.51,6.2,5.71-5.8c.13.39.26.79.39,1.18-1.64,1.59-4.21,3.81-5.51,5.61-.38.53-.94,1.01-.79,1.77l6.1-5.31c.17-.27.59.1.59.2.02.49-6.4,5.75-6.69,7.08l7.28-6.59c.14.39.26.79.39,1.18-.89.54-1.9,1.45-2.66,2.16-.98.92-4.57,4.47-4.82,5.31h-.59c.35-2.15-.06-5.88,0-8.26l5.71-6.1c.15.43.26.98.39,1.38Z" style="fill: #8f2714;"/>
          <path d="M80.96,30.3l-7.28,6.59c.29-1.34,6.71-6.6,6.69-7.08,0-.1-.42-.47-.59-.2l-6.1,5.31c-.15-.76.41-1.24.79-1.77,1.3-1.8,3.87-4.02,5.51-5.61.32.92.67,1.84.98,2.75Z" style="fill: #c35020;"/>
          <path d="M84.31,40.54c-.95,1.45-5.85,6.23-5.9,7.67-.57-.26-.53-.92-.79-1.38l6.3-7.28c.09.26.26.58.39.98Z" style="fill: #a23e1d;"/>
          <path d="M82.93,36.01l-7.08,7.67c-.26-.49-.5-.76-.79-1.38l7.48-7.28c.12.35.28.65.39.98Z" style="fill: #a23e1d;"/>
          <path d="M84.7,41.72s.31.35.39.59l-5.71,7.67c-.26-.44-.92-1.05-.98-1.57l6.3-6.69Z" style="fill: #a23e1d;"/>
          <path d="M86.28,45.85l-5.51,6.49s-.54-.37-.59-.79l5.51-7.08c.12.36.42.87.59,1.38Z" style="fill: #a23e1d;"/>
          <path d="M85.49,43.88c-.88,1.76-5.14,5.49-5.31,7.28-.48-.08-.47-.59-.59-.79l5.71-7.28c.11.31.13.6.2.79Z" style="fill: #a23e1d;"/>
          <path d="M84.7,41.72l-6.3,6.69c0-.06,0-.13,0-.2.06-1.45,4.95-6.23,5.9-7.67.13.39.26.79.39,1.18Z" style="fill: #c56933;"/>
          <path d="M85.69,44.47l-5.51,7.08c-.01-.12-.01-.27,0-.39.18-1.79,4.43-5.52,5.31-7.28.07.2.13.4.2.59Z" style="fill: #c56933;"/>
          <path d="M79.39,25.98c.05.16.14.23.2.39l-5.71,5.8,5.51-6.2Z" style="fill: #c35020;"/>
          <path d="M85.1,42.31c.08.23.12.56.2.79l-5.71,7.28c-.12-.2-.15-.32-.2-.39l5.71-7.67Z" style="fill: #c56933;"/>
          <path d="M79,24.6l-5.71,6.1c0-.26,0-.53,0-.79l5.51-5.71c.05.16.14.23.2.39Z" style="fill: #c35020;"/>
          <path d="M96.7,77.13c-.24.06-.68-.02-.98,0l-.2-4.72c.5,1.49,1.14,2.98,1.77,4.43-.18.31-.36.23-.59.3Z" style="fill: #d98646;"/>
          <path d="M90.01,56.47c-.01.13.02.27,0,.39-.06.31-3.73,4.82-4.03,4.92-.48.15-.54-1.19-.49-1.28.19-.32.55.24.69.1,1.19-1.25,2.25-3.21,3.84-4.13Z" style="fill: #c35020;"/>
          <path d="M73.29,9.06c-.02.57.08,3.11,0,3.25-.14.23-.63-.03-.79.2-.03.05-.13,1.63-.59.49.25-.79.83-2.44.98-3.05.19-.75-.34-2.78.59-2.75.17.64-.18,1.35-.2,1.87Z" style="fill: #c56933;"/>
          <path d="M71.52,76.54l-.39.3c.14.23.23-.16.39-.1.7.26,1.63.49,2.36.39l-.39.2h-20.07l-.59-.39c1.54-.09,3.22-.36,4.72-.39s12.82.67,13.28.2c-2.31-1.86-2.29-3.26-5.21-4.33l1.18-1.38c.15.2.67.44.79.89,1.27-.51-.41-1.82-.59-2.36s.21-.66.2-.69c.29-.09.18-.7.59-.1,1.34,1.97,2.27,5.68,3.74,7.77Z" style="fill: #5d4a47;"/>
          <path d="M63.26,71.82c.86.11,1.55.29,2.36.59,2.92,1.07,2.9,2.47,5.21,4.33-.46.48-11.82-.23-13.28-.2v-3.94c.74-.37.43.9.69.98s.89-1.22,1.18-1.38c1.02-.58,2.54-.55,3.84-.39Z" style="fill: #f4e0c2;"/>
          <path d="M66.8,71.03l-1.18,1.38c-.81-.3-1.5-.49-2.36-.59.19-.92-.6-.42-.79-.69-.08-.11.34-2.24.3-2.66.9-.13,2.55,1.97,2.95,1.97.22,0,.2-.6.59-.59.51.01.45,1.13.49,1.18Z" style="fill: #c9a98e;"/>
          <g>
            <path d="M76.24,16.93c-.13.74-2.68,2.1-2.75,2.26-.07.15-.16,2.73-.2,3.25-.43-.1-.2-.56-.59-.1-.62.73-4.19,13.41-5.12,15.74-.83,2.08-3.17,7.62-4.33,9.25-.12.17-.27.17-.39,0,.52-3.2-.1-6.55.39-9.74.07-.46.3-.94.39-1.38v9.35c1.45-3.29,1-7.89.79-11.51,1.66-5.9,3.94-11.7,5.9-17.51.38-1.13,1.36-2.86,1.57-3.54.46,1.14.56-.44.59-.49.15-.23.65.03.79-.2.08-.14-.02-2.68,0-3.25l2.95,7.87Z" style="fill: #a25b36;"/>
            <path d="M63.65,36.21c.16-.71.59-1.47.79-2.16.22,3.62.66,8.22-.79,11.51v-9.35Z" style="fill: #db9c64;"/>
            <path d="M73,12.6c.67-.22.59,2.69.49,3.05-.09.31-.14-.67-.79,0-.38.39-.36,1.87-1.28,2.26-.23-.11,1.03-3.36,1.67-3.44-.03-.76-1.03.4-1.48.49-.35-1.21,1.26-1.17,1.38-2.36Z" style="fill: #c56933;"/>
          </g>
          <path d="M87.06,76.74c-.38-.03-.8.05-1.18,0,.32-3.82-.44-8.36,0-12.1.02-.2.55-3.09,1.08-2.66l.1,14.76Z" style="fill: #c56933;"/>
          <path d="M85.29,76.74c-.31-.05-.72.11-.98-.1-.34-.49-.05-11.2.2-11.9.08-.22.37-1,.79-.69v12.69Z" style="fill: #d98646;"/>
          <path d="M83.13,56.47c.85-2.04,2.64-3.83,4.43-5.12l-4.43,5.12Z" style="fill: #c56933;"/>
          <path d="M71.52,76.54v.2c-.16-.06-.26.33-.39.1l.39-.3Z" style="fill: #a6958b;"/>
          <g>
            <path d="M83.52,65.52c-.32,1.79.39,10.42,0,11.12l-7.67-.49c2-2.33,5.69-11.7,7.67-15.15v4.53Z" style="fill: #c56933;"/>
            <path d="M77.52,73.39c.75.41.54,1.97.59,2.75-.61.46-.78-2.5-.59-2.75Z" style="fill: #a25b36;"/>
          </g>
          <g>
            <path d="M73.88,38.96c-.4,1.35.63,2.18,1.18,3.34.29.62.53.89.79,1.38.57,1.08,1.18,2.09,1.77,3.15.26.46.22,1.12.79,1.38,0,.06,0,.13,0,.2.06.53.72,1.14.98,1.57.05.08.08.2.2.39s.11.71.59.79c-.01.13-.01.27,0,.39.05.41.57.74.59.79.65,1.45,1.58,2.75,2.36,4.13.45.79.79,1.65,1.38,2.36-.32.5-.62,1.53-.98,2.16-1.98,3.45-5.67,12.82-7.67,15.15-.65.76-.99.86-1.97.98-.73.1-1.66-.13-2.36-.39v-.2c-1.47-2.09-2.4-5.8-3.74-7.77-.41-.6-.3,0-.59.1-.89-2.32-4.96-8.17-4.72-10.13.46-3.75,10.07-15.16,10.82-19.77h.59Z" style="fill: #2a120f;"/>
            <g>
              <path d="M73.09,64.93c0-.39,0-.79,0-1.18.43-.31,1.88-3.1,2.07-3.15,1.73-.45-1.33,4.39-2.07,4.33Z" style="fill: #0e0504;"/>
              <path d="M73,70.44l.2,5.51c-1.49-.51-.47-2.69-.49-2.85-.17-1.04-2.01-1.26.3-2.66Z" style="fill: #5d4a47;"/>
              <path d="M73,40.54c.13,0,.32,2.42-.2,2.56-.3-.31.07-2.56.2-2.56Z" style="fill: #8f7e77;"/>
              <path d="M72.6,69.26c1,.04-.89,1.46-.49.3,0-.03.46-.3.49-.3Z" style="fill: #a6958b;"/>
              <path d="M67.68,64.74c.34-.15.42.49.2.59-.34.15-.42-.49-.2-.59Z" style="fill: #8f7e77;"/>
              <polygon points="63.16 59.03 63.26 59.33 62.96 59.42 62.86 59.33 63.16 59.03" style="fill: #5d4a47;"/>
              <g>
                <path d="M73.09,63.75c0,.39,0,.79,0,1.18-.04,1.8.19,3.18-1.48,4.33-1.37-.96.38-1.11.39-2.36-2.9,3.37-1.79,1.1-.3-.98.02-.03.48.02.59-.3-.35-.36-.5.23-.59.3-.94.68-1.82,1.55-2.26,2.56-.55-1.16,1.45-2.57,2.07-3.64l-2.85,2.66c-.27-1.19,1.69-2.5,2.46-3.64l-2.66,2.46c-1.43.06,2.54-3.47,2.66-3.84.07-.94-2.47,2.38-2.85,2.26l.39-1.57c-2.05,2.04-2.17.81-.98-1.18l-1.38.98c1.49-1.92.63-1.55-1.08-1.08.49-.5.54-1.37.59-1.48.27-.26.89-.68.69-1.18-.58.09-.57.92-.69,1.18-.14.14-.66.23-.69.79v-1.38c-.22.14-.63,1.31-.89.49,2.37-3.48,5.74-6.65,6.98-10.72l-7.57,10.13,8.66-12.59c-.51-.2.18-3.65.49-3.64.02,6.7.36,13.55.3,20.27Z" style="fill: #a6958b;"/>
                <path d="M65.81,60.41c.12-.26.11-1.09.69-1.18.2.5-.42.92-.69,1.18Z" style="fill: #2a120f;"/>
                <path d="M71.72,65.92c.09-.07.24-.65.59-.3-.11.31-.57.27-.59.3Z" style="fill: #2a120f;"/>
                <path d="M66.9,60.01c.3-.11.43.29.2.39-.29.13-.43-.31-.2-.39Z" style="fill: #46302d;"/>
              </g>
            </g>
          </g>
        </g>
      </g>
    </g>
  </g>
</svg>
