<?xml version="1.0" encoding="UTF-8"?>
<svg id="Laag_1" data-name="Laag 1" xmlns="http://www.w3.org/2000/svg" xmlns:xlink="http://www.w3.org/1999/xlink" viewBox="0 0 140.46 154.43">
  <defs>
    <linearGradient id="Naamloos_verloop_194" data-name="Naamloos verloop 194" x1="19.16" y1="-2.25" x2="117.56" y2="61.72" gradientUnits="userSpaceOnUse">
      <stop offset="0" stop-color="#fcdd8f"/>
      <stop offset=".6" stop-color="#e6ab60"/>
      <stop offset=".68" stop-color="#e6ab60"/>
      <stop offset="1" stop-color="#cd8345"/>
    </linearGradient>
    <linearGradient id="Naamloos_verloop_195" data-name="Naamloos verloop 195" x1="135.03" y1="33.04" x2="6.62" y2="47.37" gradientUnits="userSpaceOnUse">
      <stop offset="0" stop-color="#bf7036"/>
      <stop offset="1" stop-color="#e6ab60"/>
    </linearGradient>
    <linearGradient id="Naamloos_verloop_196" data-name="Naamloos verloop 196" x1="50.52" y1="7.56" x2="82.99" y2="29.72" gradientUnits="userSpaceOnUse">
      <stop offset="0" stop-color="#facb7d"/>
      <stop offset="1" stop-color="#e6ab60"/>
    </linearGradient>
    <linearGradient id="Naamloos_verloop_197" data-name="Naamloos verloop 197" x1="51.55" y1="137.56" x2="83.38" y2="140.87" gradientUnits="userSpaceOnUse">
      <stop offset="0" stop-color="#6dc2d7"/>
      <stop offset="1" stop-color="#4691bd"/>
    </linearGradient>
  </defs>
  <g id="Generatief_object" data-name="Generatief object">
    <g>
      <path d="M101.04,32.06l-1.58.1h-59.88l-1.54-.09c.03-.1.07-.2.1-.31,1.76-5.28,5.78-20.26,9.27-23.43,8.33-7.56,14.09,4.1,23.2,3.45,7.8-.56,12.71-10.22,20.69-3.89,3.91,3.1,7.96,18.68,9.73,24.17Z" style="fill: #f5918c;"/>
      <path d="M101.04,32.06c1.05,3.25,2.08,6.51,3.1,9.77.16.5.56.94.33,1.63-20.81,1.05-49.61,1.64-70.2.29-.14-.64.25-1.07.43-1.64,1.11-3.35,2.23-6.7,3.35-10.05.03-.1.07-.2.1-.31-.03.1-.07.2-.1.31l1.54.09h59.88l1.58-.1Z" style="fill: #fce86b;"/>
      <path d="M105.18,97.77c1.11-2.35,1.19-24.69,1.19-28.88l1.57-.05c2.3.43,9.32-1.08,10.47,1.25,0,8.97.95,18.47-.5,27.21-1.37,1.37-10.06.51-12.38.49l-.35-.03Z" style="fill: #a3dcff;"/>
      <path d="M32.69,68.89c0,5.84-.42,24.38,2.02,28.67-.46.64-1.09.37-1.71.43-1.61.17-10.73.2-11.54-.5-1.46-8.81-.5-18.36-.5-27.4,1.14-2.32,7.89-.83,10.16-1.25l1.57.05Z" style="fill: #a3dcff;"/>
      <g>
        <path d="M106.35,61.94c.02.95.01,1.88.01,2.82,0,1.38,0,2.75,0,4.13,0,4.19-.08,26.53-1.19,28.88-.04.09-.18.13-.23.22-1.08,1.97-8.24,7.51-10.37,9.87-.86.94-1.9.96-.63,1.92,6.39.78,15.39,4.42,16.85,11.44.6.1,1.11.41,1.65.65,5.52,2.45,8.71,2.98,11.74,9.05,1.21,2.42,2.5,15.87.53,16.62H14.21c-1.66-.64-.38-13.67.67-15.99,2.77-6.09,5.76-7.14,11.44-9.33.71-.27,1.4-.41,1.96-1,1.6-6.87,10.83-10.69,17.13-11.42.81-1.49-.07-1.25-.85-2.01-3.58-3.49-7.18-5.53-9.84-10.21-2.44-4.3-2.02-22.84-2.02-28.67,0-1.79,0-3.59,0-5.38v-1.57c20.8,1.41,52.87,1.4,73.66,0Z" style="fill: #fefefe;"/>
        <path d="M87.18,71.84c.23-.05.46-.09.7-.12,9.5-1.17,11.81,13.08,2.35,14.91-9.67,1.87-12.61-12.71-3.05-14.79Z" style="fill: #fce86b; stroke: #647287; stroke-linecap: round; stroke-linejoin: round; stroke-width: 4.08px;"/>
        <path d="M48.66,71.89c.12-.03.24-.06.36-.08,9.57-1.89,12.67,12.64,3.07,14.76-9.61,2.12-12.91-12.36-3.43-14.68Z" style="fill: #fce86b; stroke: #647287; stroke-linecap: round; stroke-linejoin: round; stroke-width: 4.08px;"/>
      </g>
      <path d="M34.27,43.75c20.59,1.35,49.4.76,70.2-.29,2.21-.11,4.4.2,6.6-.27,10.16-2.15,14.22-11.63,20.27-18.86,8.57,18.38-5.64,36.3-24.99,37.6-20.79,1.4-52.86,1.41-73.65,0-1.1-.07-2.44.15-3.46,0-.12-.02-.19-.29-.31-.31C10.24,58.6,1.38,40,7.01,22.85c9.03,11.58,11.08,19.83,27.26,20.9Z" style="fill: #f06059; stroke: #637187; stroke-linecap: round; stroke-linejoin: round; stroke-width: 4.08px;"/>
    </g>
    <g id="Generatief_object-2" data-name="Generatief object">
      <g>
        <g>
          <path d="M11.51,31.53c-.2-.11-.35-.22-.49-.4-.51.4,1.46,2.95,1.88,3.46,7.94,9.78,28.3,8.35,40.21,8.59,10.59.21,21.31.15,31.91,0,5.46-.08,10.94-.17,16.4-.4,14.53-.61,21.82.92,30.23-12.55,1.17-1.88,2.43-4.33,3.16-6.42.82-1.14,1.43-2.48,2.37-3.56,1.35.51,2.4,4.64,2.57,6.03.7,5.6-4.46,13.76-8.99,17.49-15.99,13.14-67.63,13.94-87.92,11.85-16.86-1.74-34.34-3.46-40.21-22.03l-1.98-10.77c.09-.53,1.19-4.5,1.48-4.54l9.38,13.24Z" style="fill: url(#Naamloos_verloop_194);"/>
          <path d="M110.5,60.97c-1.59.2-3.47,0-4.94.2-24.88.73-50.67,2.21-75.47-.2C9.42,58.97-3.05,43.98.65,22.84l1.98,10.77c5.87,18.57,23.35,20.29,40.21,22.03,20.29,2.09,71.93,1.29,87.92-11.85,4.53-3.73,9.69-11.89,8.99-17.49-.17-1.39-1.22-5.52-2.57-6.03.2-.22.19-.62.49-.79l.3.3c8.52,21.91-5.79,38.46-27.46,41.19Z" style="fill: url(#Naamloos_verloop_195);"/>
          <path d="M11.51,31.53c.87.47,3.37,3.55,4.64,4.54,5.71,4.44,8.9,4.27,15.71,4.74,17.27,1.19,35.23,1.25,52.56.99.2,0,.4,0,.59,0v1.38c-10.59.15-21.31.21-31.91,0-11.9-.24-32.27,1.19-40.21-8.59-.41-.51-2.38-3.06-1.88-3.46.14.18.29.29.49.4Z" style="fill: #facb7d;"/>
          <path d="M101.41,42.79c-1-.39-.29-.49-.4-1.38,2.5-.12,5.02-.4,7.51-.59,15.17-1.2,17.81-5.26,26.28-16.99-.74,2.09-1.99,4.54-3.16,6.42-8.41,13.47-15.7,11.94-30.23,12.55Z" style="fill: #e6ab60;"/>
          <path d="M101.01,41.41c.1.89-.61.99.4,1.38-5.45.23-10.94.32-16.4.4v-1.38c5.31-.09,10.7-.13,16-.4Z" style="fill: #e6ab60;"/>
        </g>
        <g>
          <path d="M104.77,28.37h-17.39c1.25-8.12,2.31-19.64-5.14-25.29-.27-.2-.56-.36-.79-.59-.03-.03-.18-.31-.2-.4,17.34-8.36,19.66,14,23.51,26.28Z" style="fill: #bf7036;"/>
          <path d="M104.77,28.37c1.09,3.49,2.26,6.69,3.16,10.27-7.68.57-15.41.86-23.12.99.92-3.68,1.97-7.3,2.57-11.06.01-.06,0-.13,0-.2h17.39Z" style="fill: #9c2118;"/>
          <path d="M56.96.71l1.38,2.37c-.82-.36-5.87.24-6.82.59-2.46.91-3.9,5.89-4.64,8.2-1.73,5.35-2.75,11.05-4.15,16.5l-.2.2c-1.03-.35-2.27-.19-3.36-.2s-2.11,0-3.16,0c3.36-10.41,5.88-32.62,20.94-27.66Z" style="fill: #fcdd8f;"/>
          <path d="M36.21,39.24c1.49.11,2.92-.05,4.35,0,14.69.54,29.54.64,44.26.4-.18.7-.25,1.46-.4,2.17-17.32.26-35.29.2-52.56-.99.35-.6.4-1.33.59-1.98,1.23.22,2.51.3,3.75.4Z" style="fill: #9c2118;"/>
          <path d="M81.26,2.09c.02.09.17.37.2.4-2.72,1.3-5.21,4.03-6.32,6.92-.93,1.03-2.12,3.78-3.06,4.15-3.35,1.29-7.33-2.8-9.38-5.04-.81-.88-3.79-5.19-4.35-5.43l-1.38-2.37c4.19,1.38,7.02,4.89,11.95,5.33,5.61.5,7.86-1.79,12.35-3.95Z" style="fill: #dc9751;"/>
          <path d="M107.93,38.65c.18.72.4,1.45.59,2.17-2.49.2-5.01.47-7.51.59-5.3.26-10.69.31-16,.4-.2,0-.4,0-.59,0,.14-.71.22-1.47.4-2.17,7.7-.13,15.44-.42,23.12-.99Z" style="fill: #9c2118;"/>
          <path d="M39.17,28.37l-2.96,10.87c-1.24-.09-2.53-.18-3.75-.4,1.04-3.56,2.42-6.96,3.56-10.47,1.05,0,2.11,0,3.16,0Z" style="fill: #d53622;"/>
          <path d="M58.34,3.08c.56.25,3.54,4.55,4.35,5.43,2.06,2.23,6.03,6.33,9.38,5.04.95-.36,2.13-3.12,3.06-4.15,1.89-2.09,5.21-4.04,7.11-6.32,7.45,5.65,6.39,17.17,5.14,25.29,0,.06.01.13,0,.2l-44.65-.2c1.4-5.45,2.42-11.14,4.15-16.5.75-2.31,2.18-7.29,4.64-8.2.94-.35,6-.96,6.82-.59Z" style="fill: url(#Naamloos_verloop_196);"/>
          <path d="M81.45,2.49c.23.24.52.39.79.59-1.9,2.28-5.23,4.23-7.11,6.32,1.11-2.88,3.61-5.62,6.32-6.92Z" style="fill: #e6ab60;"/>
          <path d="M87.38,28.57c-.6,3.77-1.65,7.38-2.57,11.06-14.72.25-29.57.15-44.26-.4l1.98-10.67.2-.2,44.65.2Z" style="fill: #d53622;"/>
          <path d="M42.53,28.57l-1.98,10.67c-1.43-.05-2.86.11-4.35,0l2.96-10.87c1.09,0,2.33-.15,3.36.2Z" style="fill: #cd8345;"/>
        </g>
      </g>
      <g>
        <g>
          <path d="M115.44,134.47c-1.77.6-12.51-.2-12.84.4-.18.55.56.75.59.79,1.34,1.54,6.87,4.07,6.32,6.42-.16.69-8.47,9.13-9.68,10.37-.04.05-.84.44-.4.59-.36.38-.79.77-1.09,1.19h2.86v.2c-2.83.01-5.68,0-8.5,0,1.66-4.55,3.02-9.17,4.35-13.83s3.03-9.28,3.16-14.03c3.84-2.02,7.17-4.86,10.57-7.51,2.37,4.77,5.5,9.87,4.64,15.41Z" style="fill: #a2aebd;"/>
          <path d="M40.75,126.57c-.5.37-.27,1.78-.2,2.27.4,2.61,1.46,5.8,2.17,8.4,1.58,5.8,3.54,11.52,5.53,17.19-2.83,0-5.67.01-8.5,0v-.2c.76.17,2.03-.12,2.86,0,.09-.25-.37-.61-.49-.79-1.52-2.28-11-10.5-10.87-12.15.09-1.18,4.1-3.87,5.14-4.64.29-.22,2.62-1.73,2.57-1.88-.14-.17-.39-.09-.59-.1h-12.84c-.05-.84-.05-1.93,0-2.77.29-4.57,2.3-8.79,4.64-12.64,3.44,2.55,6.65,5.47,10.57,7.31Z" style="fill: #a2aebd;"/>
          <path d="M44.9,114.12c-1.83,1.1-3.83,2.3-4.35,4.54s.05,2.52.4,4.35c.25,1.29.69,2.49.99,3.75.03.12-.03.28,0,.4-.36-.38-.8-.41-1.19-.59-3.92-1.84-7.13-4.76-10.57-7.31-2.34,3.85-4.35,8.07-4.64,12.64-.73.52-1.28.41-2.17.4.19-1.77.18-3.6.59-5.33,1.27-.63,3.2-5.2,4.54-6.82,3.87-4.66,10.24-6.21,16-6.82.17.28.24.52.4.79Z" style="fill: #8895a6;"/>
          <path d="M116.23,126.57c.44,1.95,1.48,7.14-.79,7.9.86-5.54-2.28-10.64-4.64-15.41-3.4,2.65-6.73,5.49-10.57,7.51-.37.19-.73.46-1.19.4.03-.12-.03-.28,0-.4.32-1.32.7-2.3.99-3.75.27-1.36.94-2.2.59-3.95-.46-2.32-2.82-3.65-4.54-4.94.12-.22.32-.45.4-.59,5.94.76,12.33,2.26,16.2,7.21.94,1.2,2.85,5.5,3.56,6.03Z" style="fill: #8895a6;"/>
          <g>
            <path d="M130.65,153.83c-5.91-4.03-10.04-10.22-12.64-16.79-.08-3.36-.71-6.73-.99-10.08,3.79,1.85,6.95,1.53,10.27,5.43s5.77,17.18,3.36,21.44Z" style="fill: #b8c5d2;"/>
            <path d="M130.65,153.83c-.07.12.42.37.1.59-4.84.02-9.68-.02-14.52,0,.83-5.76,1.91-11.52,1.78-17.39,2.6,6.58,6.74,12.77,12.64,16.79Z" style="fill: #8895a6;"/>
          </g>
          <path d="M38.98,154.43c-3.95-.02-7.91.02-11.85,0l-1.19-12.84,13.04,12.84Z" style="fill: #a2aebd;"/>
          <path d="M113.86,154.43c-3.95.02-7.91-.01-11.85,0l13.04-12.84c-.15,4.3-.59,8.59-1.19,12.84Z" style="fill: #a2aebd;"/>
          <path d="M117.02,126.96c.28,3.34.91,6.72.99,10.08.13,5.87-.94,11.62-1.78,17.39-.79,0-1.58,0-2.37,0,.6-4.26,1.03-8.54,1.19-12.84.01-.39.27-.43,0-.79,0-.17.15-.2.2-.4.1-.42.31-4.99.1-5.14-3.6.1-7.18-.08-10.77-.2-.68-.02-1.31-.03-1.98-.2.33-.6,11.07.2,12.84-.4,2.27-.77,1.23-5.95.79-7.9.04.03.72.36.79.4Z" style="fill: #6d7b8b;"/>
          <g>
            <path d="M23.96,126.96c-.42,1.74-.4,3.57-.59,5.33s-.57,3.43-.59,5.14c-2.63,6.58-7.18,12.13-12.64,16.6-2.5-3.81.12-17.71,3.16-21.44,3.49-4.29,6.79-3.71,10.67-5.63Z" style="fill: #b8c5d2;"/>
            <path d="M24.75,154.43c-4.9-.03-9.81.02-14.72,0-.32-.35.11-.38.1-.4,5.47-4.46,10.01-10.02,12.64-16.6-.08,5.72,1.3,11.36,1.98,16.99Z" style="fill: #8895a6;"/>
            <path d="M25.54,131.9c-.05.84-.05,1.93,0,2.77,0,.07-.59.18.4.59l-.4.1c0,1.67-.05,3.39.2,5.04,0,.06-.01.13,0,.2,0,.05-.42.54.2.99l1.19,12.84c-.79,0-1.58,0-2.37,0-.68-5.63-2.05-11.28-1.98-16.99.02-1.71.41-3.44.59-5.14.9.02,1.44.12,2.17-.4Z" style="fill: #8895a6;"/>
          </g>
          <path d="M44.71,137.24c1.64,5.75,3.52,11.43,5.14,17.19-.53,0-1.06,0-1.58,0-1.99-5.67-3.95-11.38-5.53-17.19.87-.61,1.27-.73,1.98,0Z" style="fill: #8895a6;"/>
          <path d="M97.06,140.59c-1.32,4.66-2.69,9.28-4.35,13.83-.59,0-1.19,0-1.78,0,1.43-4.75,3.15-9.47,4.54-14.23l1.58.4Z" style="fill: #8895a6;"/>
          <path d="M115.04,141.58l-13.04,12.84c-.26,0-.53,0-.79,0v-.2l13.83-13.44c.27.36.01.4,0,.79Z" style="fill: #6d7b8b;"/>
          <path d="M39.77,154.23v.2c-.26,0-.53,0-.79,0l-13.04-12.84c-.62-.45-.19-.94-.2-.99,2.41,1.53,12.35,13.26,14.03,13.63Z" style="fill: #6d7b8b;"/>
          <path d="M104.57,135.06l10.67,5.33c-.05.19-.2.23-.2.4l-13.83,13.44h-2.86c.3-.42.73-.8,1.09-1.19.31-.33.37-.57.4-.59,1.5-1.52,12.29-10.34,12.45-11.16l-9.09-5.63s-.77-.24-.59-.79c.66.17,1.3.18,1.98.2Z" style="fill: #a2aebd;"/>
          <path d="M97.06,140.59l-1.58-.4c.89-3.05,1.56-6.21,2.37-9.29.35-1.31.86-2.62,1.19-3.95.45.06.82-.2,1.19-.4-.13,4.75-1.87,9.48-3.16,14.03Z" style="fill: #a2aebd;"/>
          <path d="M99.83,152.45c1.21-1.24,9.52-9.68,9.68-10.37.55-2.35-4.99-4.88-6.32-6.42l9.09,5.63c-.16.82-10.95,9.65-12.45,11.16Z" style="fill: #b8c5d2;"/>
          <path d="M99.43,153.04c-.44-.16.35-.55.4-.59-.03.03-.08.26-.4.59Z" style="fill: #b8c5d2;"/>
          <path d="M38.38,134.67c.21,0,.46-.07.59.1.05.15-2.28,1.66-2.57,1.88l-7.9,4.25,13.63,12.55c.12.18.59.54.49.79-.84-.12-2.1.17-2.86,0-1.67-.37-11.62-12.1-14.03-13.63-.01-.06,0-.13,0-.2.44-.09.56.22.99.1,2.13-.61,7.13-4.17,9.88-5.24.49-.19,1.25-.6,1.78-.59Z" style="fill: #a2aebd;"/>
          <path d="M36.41,136.64c-1.04.77-5.04,3.47-5.14,4.64-.13,1.65,9.35,9.87,10.87,12.15l-13.63-12.55,7.9-4.25Z" style="fill: #b8c5d2;"/>
          <path d="M41.94,127.16c.24,1.01.54,1.97.79,2.96.61,2.39,1.3,4.74,1.98,7.11-.71-.73-1.1-.61-1.98,0-.71-2.6-1.77-5.79-2.17-8.4-.08-.5-.3-1.9.2-2.27.39.18.82.21,1.19.59Z" style="fill: #a2aebd;"/>
          <path d="M38.38,134.67c-.53-.01-1.29.4-1.78.59h-10.67c-.99-.41-.39-.52-.4-.59h12.84Z" style="fill: #8895a6;"/>
          <g>
            <path d="M78.29,154.43c-5.25,0-10.54,0-15.81,0,1.75-9.28,14.25-9.36,15.81,0Z" style="fill: #a2aebd;"/>
            <path d="M74.54,144.15c-8.1-2.41-15.51,1.63-16.2,10.27-.33,0-.66,0-.99,0,.28-3.05,1.65-6.43,3.95-8.5,3.02-2.7,8.04-3.56,11.95-2.77.36.07,1.75.31,1.28.99Z" style="fill: #6d7b8b;"/>
            <path d="M80.27,146.52c1.81,2,2.93,5.33,3.56,7.9-.33,0-.66,0-.99,0-.45-4.49-3.47-8.52-7.71-10.08l1.09-.2-.2-.59c1.24.75,3.3,1.91,4.25,2.96Z" style="fill: #6d7b8b;"/>
            <g>
              <path d="M74.54,144.15c.22.06.38.12.59.2,4.24,1.56,7.25,5.58,7.71,10.08-1.51,0-3.03,0-4.54,0-1.56-9.36-14.05-9.28-15.81,0-1.38,0-2.77,0-4.15,0,.69-8.65,8.11-12.68,16.2-10.27Z" style="fill: #1f344f;"/>
              <g>
                <path d="M61.99,148.3c1.15-.2,1.12,1.36.4,1.58-1.17.36-1.42-1.4-.4-1.58Z" style="fill: #2f5a7f;"/>
                <path d="M72.66,144.55c.84-.21,1.26,1.27.59,1.58-.96.45-1.54-1.34-.59-1.58Z" style="fill: #2f5a7f;"/>
                <path d="M75.63,145.93c.89-.27,1.54,1.03.79,1.38-.97.46-1.74-1.1-.79-1.38Z" style="fill: #6d7b8b;"/>
                <path d="M69.3,144.35c.61-.03,1.18,1.34.4,1.58-1.04.32-1.43-1.52-.4-1.58Z" style="fill: #6d7b8b;"/>
                <path d="M65.55,145.73c1.04-.32,1.27,1.16.59,1.38-.98.33-1.49-1.11-.59-1.38Z" style="fill: #6d7b8b;"/>
                <path d="M60.41,151.07c.48.02,1.09,1.23.59,1.38-1.41.44-1.62-1.42-.59-1.38Z" style="fill: #6d7b8b;"/>
                <path d="M78.39,148.7c.6-.16,1.71.21,1.09.89-.71.77-2.31-.55-1.09-.89Z" style="fill: #6d7b8b;"/>
                <path d="M80.17,151.26c.92-.24,1.18.98.4,1.19-.92.24-1.18-.98-.4-1.19Z" style="fill: #6d7b8b;"/>
              </g>
            </g>
          </g>
          <path d="M115.24,140.4l-10.67-5.33c3.59.12,7.17.3,10.77.2.21.15,0,4.71-.1,5.14Z" style="fill: #a2aebd;"/>
          <path d="M36.61,135.26c-2.75,1.07-7.75,4.63-9.88,5.24-.43.12-.55-.18-.99-.1-.24-1.65-.19-3.37-.2-5.04l.4-.1h10.67Z" style="fill: #a2aebd;"/>
          <g>
            <path d="M96.47,113.33c-.08.14-.28.37-.4.59-.48.91-.9,1.87-1.38,2.77-6.39,3.77-14.07,5.12-21.44,5.53-1.28.07-7.73-.36-8.1-.2-.54.23-.23.58-.3.99-4.05-.29-14.98-1.62-17.78-4.54-.65-.68-1.46-3.07-2.17-4.35-.15-.27-.22-.51-.4-.79-.35-.57-.56-1.23-.99-1.78,15.43,9.7,38.61,9.44,53.94-.4-.4.67-.62,1.51-.99,2.17Z" style="fill: #1f344f;"/>
            <path d="M95.88,131.51c-2.49,8.27-7.03,15.71-11.66,22.92-.13,0-.27,0-.4,0-.63-2.57-1.75-5.9-3.56-7.9,5.17-2.28,5.41-7.78,6.52-12.64.01,0-.07-.15.2-.2,2.98-.57,5.98-1.15,8.89-2.17Z" style="fill: #2f5a7f;"/>
            <path d="M44.31,130.32c.14.34.25.65.4.99.79,1.81,1.68,3.57,2.57,5.33,3.03,6.04,6.64,11.75,9.68,17.78-2.37,0-4.74,0-7.11,0-1.62-5.76-3.5-11.44-5.14-17.19-.68-2.37-1.37-4.72-1.98-7.11.78-.02,1.06,1.08,1.58.2Z" style="fill: #2f5a7f;"/>
            <path d="M97.85,130.91c-.81,3.08-1.48,6.23-2.37,9.29-1.39,4.76-3.11,9.47-4.54,14.23-2.24,0-4.48,0-6.72,0,4.63-7.21,9.16-14.65,11.66-22.92-.01-.24.28-.31.4-.4.09-.07,2-.81,1.58-.2Z" style="fill: #2f5a7f;"/>
            <path d="M53.6,142.57c2.13,1.53,5.2,2.64,7.71,3.36-2.31,2.06-3.67,5.45-3.95,8.5-.13,0-.27,0-.4,0-3.04-6.03-6.66-11.74-9.68-17.78.46-.3.43-.24.79.1,1.81,1.69,3.36,4.27,5.53,5.83Z" style="fill: #4691bd;"/>
            <path d="M64.86,123.01c7.01.49,16.4.45,23.12-1.58l-.2,5.73c-9.07,2.53-18.3,3.26-27.86,1.78-2.6-.4-5.24-1.05-7.71-1.98-3.49-1.31-11.88-4.93-5.14-8.5,2.8,2.92,13.73,4.26,17.78,4.54Z" style="fill: #2f5a7f;"/>
            <path d="M100.62,118.86c-1.22,4.82-7.84,7.22-12.15,8.5-.39.11-.57-.23-.69-.2l.2-5.73c3.41-1.03,5.12-1.76,6.72-4.74.48-.9.9-1.85,1.38-2.77,1.72,1.29,4.09,2.62,4.54,4.94Z" style="fill: #1f344f;"/>
            <path d="M47.08,118.47c-6.75,3.57,1.64,7.18,5.14,8.5-.34.46-2.49-.08-2.86-.2-3.46-1.13-7.86-4.42-8.79-8.1.52-2.25,2.52-3.44,4.35-4.54.71,1.27,1.53,3.67,2.17,4.35Z" style="fill: #2f5a7f;"/>
            <path d="M94.69,116.69c-1.59,2.98-3.31,3.71-6.72,4.74-6.72,2.03-16.11,2.07-23.12,1.58.06-.41-.24-.76.3-.99.37-.16,6.82.27,8.1.2,7.37-.41,15.05-1.76,21.44-5.53Z" style="fill: #1f344f;"/>
            <path d="M86.79,133.88c-1.11,4.86-1.35,10.36-6.52,12.64-.95-1.05-3.01-2.21-4.25-2.96l.2.59-1.09.2c-.21-.08-.38-.13-.59-.2.47-.68-.93-.92-1.28-.99-3.92-.79-8.94.06-11.95,2.77-2.51-.72-5.57-1.83-7.71-3.36-1.71-3.21-4.44-6.07-4.74-9.88.06.02.14-.02.2,0,11.51,3.03,26.05,3.37,37.74,1.19Z" style="fill: url(#Naamloos_verloop_197);"/>
            <path d="M49.25,129.73c8.48,2.41,17.7,2.79,26.48,2.57,3.78.17,7.89-1.12,11.66-1.38-.07.87-.51,1.85-.4,2.77-.27.05-.18.2-.2.2-11.69,2.18-26.22,1.85-37.74-1.19-1.03-1.04-.43-1.87-.4-3.16.2.06.4.14.59.2Z" style="fill: #6dc2d7;"/>
            <path d="M96.27,131.11c-.11.09-.41.15-.4.4-2.91,1.02-5.92,1.6-8.89,2.17-.11-.92.32-1.89.4-2.77,0-.07,0-.13,0-.2,3.23-.81,6.46-1.76,9.48-3.16.72.84-1.11,2.51-.59,3.56Z" style="fill: #4691bd;"/>
            <path d="M52.21,126.96c2.46.93,5.1,1.57,7.71,1.98,0,.17-.16,1.05-.2,1.09-.44.42-6.79-1.36-7.9-1.28-.77-.22-1.59-.32-2.37-.59-3.2-1.11-6.17-2.64-8.5-5.14-.35-1.83-.91-2.1-.4-4.35.93,3.68,5.33,6.97,8.79,8.1.37.12,2.52.66,2.86.2Z" style="fill: #1f344f;"/>
            <path d="M49.45,128.15c-.67.52-.52,1.03-.2,1.58-.19-.05-.39-.14-.59-.2-1.64-.5-3.84-1.17-5.33-1.98-.12-.06-.68-1.04-1.38-.79-.29-1.26-.74-2.47-.99-3.75,2.33,2.5,5.29,4.03,8.5,5.14Z" style="fill: #6dc2d7;"/>
            <path d="M43.32,127.55c.11.99.63,1.86.99,2.77-.52.88-.8-.22-1.58-.2-.25-.99-.55-1.96-.79-2.96-.03-.12.03-.28,0-.4.7-.25,1.27.73,1.38.79Z" style="fill: #8895a6;"/>
            <path d="M100.03,122.81c-3.53,3.26-8.38,5.47-13.04,6.72s-9.19,1.69-13.83,1.78c-7.23.14-14.39-.63-21.34-2.57,1.11-.08,7.46,1.7,7.9,1.28.04-.04.2-.92.2-1.09,9.56,1.48,18.79.76,27.86-1.78.12-.03.31.31.69.2,4.31-1.28,10.93-3.68,12.15-8.5.34,1.75-.33,2.6-.59,3.95Z" style="fill: #1f344f;"/>
            <path d="M99.04,126.57c-.77.11-1.46.66-2.17.99-3.03,1.4-6.25,2.35-9.48,3.16.02-.48.18-1.31-.4-1.19,4.66-1.25,9.51-3.46,13.04-6.72-.29,1.46-.67,2.43-.99,3.75Z" style="fill: #2f5a7f;"/>
            <path d="M99.04,126.57c-.03.12.03.28,0,.4-.33,1.33-.84,2.64-1.19,3.95.42-.61-1.49.13-1.58.2-.52-1.05,1.31-2.72.59-3.56.71-.33,1.41-.88,2.17-.99Z" style="fill: #4691bd;"/>
            <path d="M48.85,132.69c.31,3.81,3.03,6.67,4.74,9.88-2.17-1.56-3.72-4.13-5.53-5.83-.36-.34-.33-.4-.79-.1-.88-1.77-1.77-3.52-2.57-5.33,1.43.29,2.76,1.01,4.15,1.38Z" style="fill: #6dc2d7;"/>
            <path d="M48.66,129.53c-.03,1.29-.63,2.12.4,3.16-.06-.02-.14.02-.2,0-1.39-.38-2.72-1.1-4.15-1.38-.15-.34-.26-.65-.4-.99-.36-.9-.88-1.77-.99-2.77,1.5.8,3.69,1.48,5.33,1.98Z" style="fill: #b8c5d2;"/>
            <path d="M51.82,128.74c6.95,1.94,14.11,2.7,21.34,2.57-.47.95,1.74.95,2.57.99-8.78.22-18-.16-26.48-2.57-.32-.55-.47-1.06.2-1.58.78.27,1.6.38,2.37.59Z" style="fill: #6dc2d7;"/>
            <path d="M86.99,129.53c.57-.13.41.7.4,1.19,0,.07,0,.13,0,.2-3.76.26-7.88,1.55-11.66,1.38-.83-.04-3.03-.03-2.57-.99,4.64-.09,9.35-.58,13.83-1.78Z" style="fill: #4691bd;"/>
          </g>
        </g>
        <g>
          <path d="M88.17,64.33l-2.17,3.85,2.57-.49c-3.68.7-7.38,4.15-8.5,7.71-.22.7-.33,1.55-.4,2.57-.63-.24-.63-.07-.79.49-.54,1.86-.13,4.02.4,5.83l-14.62.59c1.7-7.18-.95-10.86-6.72-14.42-1.54-.95-2.95-2.07-4.74-2.57-5.61-1.57-12.62.9-14.42,6.72-.96,2.09-1.13,4.67-.79,6.92.25,1.62.95,3.17,1.78,4.54-2.23-2.05-2.28-5.83-2.27-8.69-2.11,4.61.82,10.45,4.74,13.24,2.63,1.87,5.78,2.71,8.99,2.96l.4.99c-2.31-.06-4.61-.32-6.92-.4l-3.06-.79c-1.1.44-8.31-1.1-8.59-.69-.2.35.2,1.22.2,1.28,0,.79.04,1.39.2,2.17.06.3.15.4.2.59-.61-.82-2.19-1.5-1.98,0l-.59.59c-1.41-6.91-.72-17.43-.79-24.7,0-.56-.2-.56-.2-.59,0-.45,0-.92,0-1.38,0-.66-.19-1.39-.2-1.98-.02-1.19.21-3.33.2-4.94,17.69,1.31,35.5.91,53.25,1.19-1.48-.56-3.26.07-4.74-.2-.28-.05-.69.11-.4-.4,3.33-.01,6.65.02,9.98,0Z" style="fill: #b8c5d2;"/>
          <path d="M49.65,96.34c-.08.11-.39.46-.4.49-.14.58-.15,10.35,0,10.87.45,1.55,10.65,4.8,12.55,5.24,7.52,1.71,23.11.84,29.24-4.35.5-.42.77-.84.89-1.48.2-1.03.2-9.24,0-10.27-.05-.26-.47-.49-.59-.69,3.02.04,6.07.03,9.09,0-2.3,6.86-8.55,11.03-11.66,17.39-16.46,6.14-36.8,4.2-50.09-7.9-.48.31,2.29,3.71,2.67,4.15-2.99-2.41-7.18-5.94-9.09-9.29-.55-.96-.96-2.07-1.19-3.16l.59-.59c.31,2.12,3.56,5.2,5.04,6.72-1.36-2.22-2.41-4.17-3.06-6.72-.05-.19-.14-.29-.2-.59l16.2.2Z" style="fill: #a2aebd;"/>
          <path d="M105.76,64.13h4.94c-.06,1.59.21,3.43.2,4.54,0,.28-.39,1.03-.4,1.78,0,.52,0,1.05,0,1.58-.03,2.37.04,4.75,0,7.11-.09,5.51.03,11.55-.4,16.99-.05.6.2.56.2.59-.13,1.62-.64,2.34-1.19,3.75-.78.18-.88.9-1.58,1.38-6.73,4.62-10.47,8.56-18.77,11.66,3.11-6.36,9.36-10.53,11.66-17.39.07,0,.13,0,.2,0,1.25-.02,7.2.23,7.8,0,.45-.17.65-1.08.49-1.48-.4-1-6.42-.27-7.71-.49.26-.83.73-1.88.59-2.77,4.14-3.05,5.68-8.5,4.54-13.44l.2-3.85-1.78-9.98h.99Z" style="fill: #8895a6;"/>
          <path d="M105.56,61.17l-1.48.2c.16,1.31-.02,2.68,1.68,2.77h-.99c-5.53,0-11.06.17-16.6.2-3.32.02-6.65-.01-9.98,0-.3.5.11.34.4.4,1.48.27,3.27-.36,4.74.2-17.74-.27-35.56.12-53.25-1.19,0-.92,0-1.85,0-2.77,24.81,2.41,50.6.93,75.47.2Z" style="fill: #6d7b8b;"/>
          <path d="M107.53,101.87c-2.63,3.4-6.45,6.96-10.08,9.29-15.33,9.84-38.5,10.1-53.94.4-.5-.65-1.7-1.22-2.17-1.78-.38-.44-3.15-3.84-2.67-4.15,13.28,12.1,33.63,14.05,50.09,7.9,8.3-3.1,12.04-7.03,18.77-11.66Z" style="fill: #6d7b8b;"/>
          <path d="M110.5,60.97c.32.95.23,2.17.2,3.16h-4.94c-1.7-.08-1.52-1.45-1.68-2.77l1.48-.2c1.47-.2,3.35,0,4.94-.2Z" style="fill: #6d7b8b;"/>
          <path d="M79.28,84.29c.59,2.06,1.35,3.02,2.77,4.54,4.68,5.01,14.01,6.81,19.76,2.57.13.89-.34,1.93-.59,2.77-.08.27-.19.18-.2.2-16.43.35-32.92.61-49.39.2l-.4-.99c6.22.49,11.89-2.17,13.44-8.69l14.62-.59Z" style="fill: #a2aebd;"/>
          <path d="M64.66,84.88c-1.54,6.52-7.22,9.18-13.44,8.69-3.21-.25-6.36-1.1-8.99-2.96-3.93-2.79-6.85-8.63-4.74-13.24,0,2.86.05,6.64,2.27,8.69,1.19,1.98,3.19,3.85,5.33,4.74,4.45,1.84,8.91,1.07,12.45-2.17,1.86-1.7,2.31-2.88,3.36-5.04.05-.11.73.31.99-1.78.52-4.22-1.18-8.29-3.95-11.36,5.77,3.57,8.42,7.24,6.72,14.42Z" style="fill: #8895a6;"/>
          <path d="M104.77,64.13l1.78,9.98-.2,3.85c-1.03-4.49-3.49-5.93-7.11-7.9-3.85-2.1-5.97-3.26-10.67-2.37l-2.57.49,2.17-3.85c5.53-.03,11.07-.2,16.6-.2Z" style="fill: #a2aebd;"/>
          <path d="M44.71,94.16c2.3.08,4.6.34,6.92.4,16.48.42,32.96.15,49.39-.2-.17.52-.18,1.23-.4,1.78-.07,0-.13,0-.2,0-3.02.03-6.07.04-9.09,0-13.45-.17-27.36-.69-41-.4-.34.21-.44.27-.69.59l-16.2-.2c-.16-.79-.19-1.38-.2-2.17,3.81.2,7.65.07,11.46.2Z" style="fill: #6d7b8b;"/>
          <path d="M79.68,77.96c-.09,1.41-.22,2.09,0,3.56.33,2.24,1.65,4.83,3.16,6.52l-.79.79c-1.42-1.52-2.17-2.49-2.77-4.54-.52-1.81-.93-3.97-.4-5.83.16-.56.16-.74.79-.49Z" style="fill: #8895a6;"/>
          <path d="M44.71,94.16c-3.81-.13-7.65,0-11.46-.2,0-.06-.4-.93-.2-1.28.29-.41,7.5,1.13,8.59.69l3.06.79Z" style="fill: #a2aebd;"/>
          <path d="M33.64,96.73c.65,2.55,1.7,4.5,3.06,6.72-1.48-1.51-4.73-4.6-5.04-6.72-.22-1.5,1.37-.82,1.98,0Z" style="fill: #b8c5d2;"/>
          <path d="M106.35,77.96c1.13,4.93-.41,10.39-4.54,13.44-5.75,4.24-15.08,2.44-19.76-2.57l.79-.79c.25.28.7.54.99.79,4.07,3.56,8.59,3.95,13.24,1.19,5.29-3.15,8-9.68,5.53-15.51-.39-.91-2.3-3.7-3.16-4.05l-.2-.4c3.62,1.97,6.08,3.42,7.11,7.9Z" style="fill: #6d7b8b;"/>
          <path d="M100.62,96.14c.21-.54.23-1.26.4-1.78,0-.01.11.08.2-.2,1.28.23,7.31-.5,7.71.49.16.4-.05,1.31-.49,1.48-.6.23-6.56-.02-7.8,0Z" style="fill: #6d7b8b;"/>
          <g>
            <g>
              <path d="M124.13,83.69c0,3.03.01,6.06-.2,9.09-.75-.99-.19,1.24-.49,1.58s-4.31.14-5.04.2c.09-3.55.19-7.11.2-10.67,1.67-.14,3.5.29,5.14-.2.1-.03.27.01.4,0Z" style="fill: #4691bd;"/>
              <path d="M124.13,83.69c-.13.01-.3-.03-.4,0l-.1-4.74-5.04.2c0-.07,0-.13,0-.2-.03-2.18-.1-4.35-.2-6.52l4.84.2c.59-2.36-3.38-1.72-4.84-1.78-.04-.74-.23-1.43-.2-2.17,1.54.05,4.7-.58,5.33,1.09.79,2.07.6,11.22.59,13.93Z" style="fill: #6dc2d7;"/>
              <path d="M118.2,68.68c-.03.74.15,1.44.2,2.17,0,.13,0,.26,0,.4-.26-.86-4.6-.7-4.74-.49-1.31,1.85,3.87,1.47,4.74,1.48,0,.07,0,.13,0,.2.09,2.17.17,4.34.2,6.52-1.68.34-3.44.2-5.14.2-.17-.93.22-6.7,0-7.01-.18-.25-2.47-.02-2.96-.1,0-.53,0-1.07,0-1.58l2.86.2.1-1.98c1.57,0,3.17-.05,4.74,0Z" style="fill: #6d7b8b;"/>
              <path d="M123.93,92.78c-.09,1.26-.33,6.23-.79,7.01-.78,1.34-3.7.45-4.94.49-.14-1.13.16-2.24.2-3.36.03-.79-.02-1.58,0-2.37.73-.05,4.74.13,5.04-.2s-.25-2.57.49-1.58Z" style="fill: #4691bd;"/>
              <path d="M112.87,96.93c-.26,3.2.07,3.53,3.26,3.16,2.79-.32,1.7-.56,1.88-3.16h.4c-.04,1.12-.33,2.23-.2,3.36-3.02.1-6.05.34-9.09.2.54-1.41,1.06-2.14,1.19-3.75.77.34,1.74.19,2.57.2Z" style="fill: #1f344f;"/>
              <path d="M113.46,68.68l-.1,1.98-2.86-.2c0-.75.39-1.5.4-1.78h2.57Z" style="fill: #2f5a7f;"/>
              <path d="M118.6,78.95c0,.07,0,.13,0,.2.02,1.58,0,3.16,0,4.74-.01,3.56-.11,7.12-.2,10.67-.02.79.03,1.59,0,2.37h-.4c-1.71,0-3.44.01-5.14,0-.83,0-1.8.15-2.57-.2,0-.03-.24,0-.2-.59.68-.44,1.91.6,2.47.2.81-.57.65-14.95.69-17.19h.2c1.7,0,3.46.15,5.14-.2Z" style="fill: #1f344f;"/>
              <path d="M113.26,79.15c-.05,2.24.12,16.62-.69,17.19-.56.4-1.79-.63-2.47-.2.43-5.44.31-11.48.4-16.99h2.77Z" style="fill: #1f344f;"/>
              <path d="M113.46,79.15h-2.96c.04-2.37-.03-4.75,0-7.11.49.08,2.79-.15,2.96.1.22.32-.17,6.09,0,7.01Z" style="fill: #2f5a7f;"/>
              <path d="M123.74,83.69c-1.63.48-3.47.05-5.14.2,0-1.58.02-3.17,0-4.74l5.04-.2.1,4.74Z" style="fill: #6dc2d7;"/>
              <path d="M118.4,72.43c0-.07,0-.13,0-.2-.01-.33.01-.66,0-.99,0-.13,0-.27,0-.4,1.46.06,5.43-.58,4.84,1.78l-4.84-.2Z" style="fill: #b8c5d2;"/>
              <path d="M118.4,71.25c.01.33-.01.66,0,.99-.87-.01-6.05.36-4.74-1.48.14-.2,4.48-.36,4.74.49Z" style="fill: #8895a6;"/>
              <path d="M118.01,96.93c-.17,2.6.91,2.84-1.88,3.16-3.19.37-3.52.04-3.26-3.16,1.7.01,3.43,0,5.14,0Z" style="fill: #1f344f;"/>
            </g>
            <g>
              <path d="M22.58,94.56l-5.33-.4c-.31-3.46-.38-6.8-.4-10.27l5.33-.2h.2c.01,3.6.1,7.27.2,10.87Z" style="fill: #4691bd;"/>
              <path d="M30.28,72.63c.07,7.27-.62,17.79.79,24.7.22,1.09.64,2.2,1.19,3.16-3.1.14-6.2-.1-9.29-.2-.02-.12.03-.31,0-.4.71.07,4.54.41,4.84.2.25-.18.01-2.65.1-3.16.07,0,.13,0,.2,0,.16,3.19-.64,3.32,3.36,3.06-.52-.55-.55-3.16-.69-3.26-.36-.25-2.15.2-2.67.2-.3-5.91-.39-11.87-.59-17.78.4-.02,2.23.1,2.37-.1l.4-6.42Z" style="fill: #1f344f;"/>
              <path d="M22.77,68.68c.16.69-.16,1.39-.2,1.98-1.52.19-5.41-.39-4.84,1.98,1.6-.21,3.23-.32,4.84-.4-.05,2.29-.18,4.64-.2,6.92-.01,1.51,0,3.03,0,4.54h-.2l-.1-4.74h-5.24c.05-1.8.02-8.12.59-9.38.63-1.38,3.91-.84,5.33-.89Z" style="fill: #6dc2d7;"/>
              <path d="M22.58,94.56c.02.77.16,1.57.2,2.37.05,1-.16,1.98.2,2.96.03.09-.02.27,0,.4-1.31-.04-4.29.85-5.14-.49-.58-.92-.48-4.4-.59-5.63l5.33.4Z" style="fill: #4691bd;"/>
              <path d="M22.18,83.69l-5.33.2c0-1.64-.05-3.3,0-4.94h5.24l.1,4.74Z" style="fill: #6dc2d7;"/>
              <path d="M27.32,68.68c-.88,2.72.9,1.86,2.77,1.98,0,.47,0,.93,0,1.38h-2.77c-.03-.27.07-.97,0-1.09-.3-.5-3.96-.35-4.74-.1,0-.07,0-.13,0-.2.04-.59.36-1.29.2-1.98,1.51-.05,3.04,0,4.54,0Z" style="fill: #6d7b8b;"/>
              <path d="M29.89,68.68c0,.59.19,1.32.2,1.98-1.86-.11-3.64.75-2.77-1.98h2.57Z" style="fill: #2f5a7f;"/>
              <path d="M30.09,72.04s.19.03.2.59l-.4,6.42c-.14.2-1.97.08-2.37.1-.07,0-.13,0-.2,0,.17-2.13.17-4.8,0-6.92,0-.07,0-.13,0-.2h2.77Z" style="fill: #1f344f;"/>
              <path d="M27.32,79.15c.07,0,.13,0,.2,0,.2,5.91.29,11.87.59,17.78-.07,0-.13,0-.2,0-1.71-.03-3.44-.3-5.14,0-.04-.8-.18-1.6-.2-2.37-.09-3.6-.18-7.27-.2-10.87,0-1.51-.01-3.03,0-4.54,1.64-.05,3.3.06,4.94,0Z" style="fill: #1f344f;"/>
              <path d="M27.91,96.93c-.08.51.15,2.98-.1,3.16-.3.21-4.13-.13-4.84-.2-.36-.98-.15-1.96-.2-2.96,1.7-.3,3.43-.03,5.14,0Z" style="fill: #1f344f;"/>
              <path d="M28.11,96.93c.51,0,2.31-.45,2.67-.2.14.1.17,2.71.69,3.26-3.99.25-3.2.12-3.36-3.06Z" style="fill: #1f344f;"/>
              <path d="M27.32,72.23c.17,2.11.17,4.79,0,6.92-1.64.06-3.3-.05-4.94,0,.02-2.27.15-4.63.2-6.92,1.55-.07,3.2-.07,4.74,0Z" style="fill: #2f5a7f;"/>
              <path d="M22.58,70.65c0,.07,0,.13,0,.2-.02.46.01.93,0,1.38-1.61.07-3.24.19-4.84.4-.57-2.36,3.32-1.78,4.84-1.98Z" style="fill: #b8c5d2;"/>
              <path d="M27.32,72.04c0,.06,0,.13,0,.2-1.54-.07-3.19-.07-4.74,0,.01-.46-.02-.93,0-1.38.78-.25,4.44-.4,4.74.1.07.11-.03.81,0,1.09Z" style="fill: #8895a6;"/>
            </g>
          </g>
          <g>
            <path d="M81.45,75.59c-1.04,1.9-1.4,3.09-1.19,5.33l-.59.59c-.22-1.46-.09-2.15,0-3.56.06-1.02.18-1.87.4-2.57l.2.3c.15-.7.57-1.14.99-1.68.1.71-.96,1.74.2,1.58Z" style="fill: #4691bd;"/>
            <path d="M99.43,70.46c.86.35,2.77,3.14,3.16,4.05,2.47,5.83-.25,12.36-5.53,15.51-3.04,1.1-5.99,1.4-9.19.79l-4.05-1.98c-.29-.25-.74-.51-.99-.79-1.51-1.69-2.83-4.28-3.16-6.52l.59-.59c.43,4.49,5.65,8.31,9.98,8.69,11.19.98,16.08-12.09,7.8-19.07.19-.06,1.32-.12,1.38-.1Z" style="fill: #2f5a7f;"/>
            <path d="M97.06,90.02c-4.65,2.77-9.17,2.38-13.24-1.19l4.05,1.98c3.2.61,6.15.31,9.19-.79Z" style="fill: #2f5a7f;"/>
            <g>
              <path d="M99.24,70.06l.2.4c-.06-.03-1.19.04-1.38.1,8.27,6.97,3.39,20.05-7.8,19.07-4.33-.38-9.55-4.2-9.98-8.69-.22-2.24.15-3.44,1.19-5.33,2.05-3.77,5.58-5.83,9.68-6.82-4.38-1.38-7.5,2.18-9.88,5.24-.42.54-.83.98-.99,1.68l-.2-.3c1.12-3.55,4.81-7.01,8.5-7.71,4.7-.89,6.82.27,10.67,2.37Z" style="fill: #4691bd;"/>
              <g>
                <path d="M85.41,86.06c-.58-.58-.52-.89-.79-1.38,1.29-1.16,2.87-2.07,4.35-2.96.72.27,1.15-.19,1.58.79-1.64.95-3.28,1.89-4.84,2.96l-.59-.59c-.22.7.77.93,1.09,1.19.51.42.75.67,1.38.99.12.06.17.11.4.2.75.3,1.12.77,2.07.59s5.17-3.53,6.42-4.05l-1.19-.69c.36-.18.87-.66,1.19-.79,2.08-.89-.05,1.76,1.68.79.85-.47,1.12-1.82,1.09-2.67,0-.16-.39-.08-.4-.1-.08-.54.06-1.22,0-1.78.2-.02.22-.21.4-.2,1.15,8.3-8.47,13.1-13.83,7.71Z" style="fill: #37b9a1;"/>
                <path d="M98.84,76.98c-.86-1.51-1.96-2.74-3.56-3.56-2.42-1.24-5.85-1.64-8.1.2-1.02.22-2.04,1.46-2.57,2.37-.74,1.27-1.14,2.62-1.19,4.15-.03,1.06.19,1.44.4,2.37.16.74.32.95.59,1.58.06.14,0,.23.2.59.27.5.21.8.79,1.38-.88-.27-2.07-2.06-2.37-2.86-4.02-10.78,12.74-16.92,15.81-6.22Z" style="fill: #2f5a7f;"/>
                <path d="M98.84,76.98c.11.38.35,1.06.4,1.38-.18-.01-.2.18-.4.2-1.89.21-5.35,2.89-7.11,3.95-1.85,1.12-3.99,1.95-5.53,3.56-.31-.26-1.31-.49-1.09-1.19l.59.59c1.57-1.07,3.2-2.02,4.84-2.96,1.04-.6,8.03-4.37,8.1-4.84.01-.08-.72-1.26-.89-1.28-2.81,1.97-5.86,3.56-8.79,5.33-1.48.89-3.05,1.81-4.35,2.96-.2-.36-.14-.45-.2-.59l12.74-7.71c.63-.81-.89-2.35-1.88-1.98-.35-.56-.66-.52,0-.99,1.6.82,2.7,2.04,3.56,3.56Z" style="fill: #37b9a1;"/>
                <path d="M81.45,75.59c-1.15.16-.1-.87-.2-1.58,2.37-3.05,5.5-6.62,9.88-5.24-4.1.98-7.63,3.05-9.68,6.82Z" style="fill: #b8c5d2;"/>
                <path d="M90.54,82.51c-.43-.98-.86-.52-1.58-.79,2.93-1.77,5.98-3.36,8.79-5.33.17.03.9,1.21.89,1.28-.07.47-7.06,4.24-8.1,4.84Z" style="fill: #37b9a1;"/>
                <path d="M98.84,78.56c.06.56-.08,1.24,0,1.78-.77.69-1.69,1.25-2.57,1.78-.73.44-1.7.79-2.37,1.19l-2.17-.79c1.76-1.07,5.23-3.74,7.11-3.95Z" style="fill: #6dc2d7;"/>
                <path d="M91.73,82.51l2.17.79c-2.11,1.23-4.11,2.7-6.32,3.75-.64-.32-.87-.57-1.38-.99,1.54-1.61,3.68-2.43,5.53-3.56Z" style="fill: #37b9a1;"/>
                <path d="M95.29,83.1l1.19.69c-1.25.52-5.48,3.88-6.42,4.05s-1.32-.29-2.07-.59c2.57-1.15,4.81-2.86,7.31-4.15Z" style="fill: #37b9a1;"/>
                <path d="M96.47,82.31l-.2-.2c.88-.53,1.8-1.09,2.57-1.78,0,.02.39-.06.4.1.03.85-.24,2.19-1.09,2.67-1.72.97.41-1.68-1.68-.79Z" style="fill: #37b9a1;"/>
                <path d="M96.47,82.31c-.31.13-.83.61-1.19.79-2.5,1.29-4.74,3-7.31,4.15-.22-.09-.28-.14-.4-.2,2.22-1.05,4.22-2.52,6.32-3.75.67-.39,1.64-.75,2.37-1.19l.2.2Z" style="fill: #2f5a7f;"/>
                <path d="M84.42,84.09c-.28-.63-.43-.84-.59-1.58.46-.74,1.29-1.11,1.98-1.58,1.56-1.08,3.15-2.13,4.74-3.16,1.19-.77,2.35-1.63,3.56-2.37.36-.22,1.11-.96,1.19-.99.98-.37,2.51,1.16,1.88,1.98l-12.74,7.71Z" style="fill: #6dc2d7;"/>
                <path d="M94.1,75.39c-1.2.74-2.36,1.6-3.56,2.37-1.84-.9-4.28-.69-5.93-1.78.53-.91,1.55-2.15,2.57-2.37,1.51-.33,1.48.36,1.68.4,1.71.26,3.77.32,5.24,1.38Z" style="fill: #6dc2d7;"/>
                <path d="M90.54,77.77c-1.59,1.03-3.18,2.08-4.74,3.16l-2.37-.79c.04-1.53.45-2.88,1.19-4.15,1.65,1.09,4.09.88,5.93,1.78Z" style="fill: #37b9a1;"/>
                <path d="M95.29,73.42c-.66.47-.35.43,0,.99-.07.03-.82.77-1.19.99-1.46-1.06-3.53-1.12-5.24-1.38-.2-.03-.17-.72-1.68-.4,2.25-1.84,5.68-1.43,8.1-.2Z" style="fill: #6dc2d7;"/>
                <path d="M85.8,80.93c-.68.47-1.51.84-1.98,1.58-.2-.93-.43-1.31-.4-2.37l2.37.79Z" style="fill: #37b9a1;"/>
              </g>
            </g>
          </g>
          <g>
            <path d="M91.33,96.14c.13.2.54.43.59.69.2,1.04.2,9.25,0,10.27-.12.64-.39,1.06-.89,1.48-6.13,5.18-21.72,6.06-29.24,4.35-1.9-.43-12.09-3.68-12.55-5.24-.15-.52-.14-10.29,0-10.87,0-.03.31-.39.4-.49.25-.32.35-.39.69-.59,13.64-.3,27.54.22,41,.4Z" style="fill: #b8c5d2;"/>
            <g>
              <path d="M90.54,97.52c.31,2.06-1.18,1.6-2.57,2.17-.04-.35.03-.73,0-1.09-1.22-.87-1.09.48-1.19,1.28h-3.36c-.21-2.43-.94-2.47-1.19,0l-3.16.2c-.18-2.49-.77-3.07-.99-.2l-2.96.2c-.19-2.39-.94-2.94-1.19-.2h-2.77c-.27-3.57-.87-1.63-.99.59h-2.77c-.05-.87.29-1.84-.49-2.37-1.02.28-.47,1.19-.49,1.78-.97.76-1.97.75-3.16.4-.16-2.38-.91-3.41-1.19-.4-.64.78-2.13.24-3.16.4-.02-.46.33-2.23-.49-2.17-.4.03-.66,1.59-.69,1.98l-3.16.2c-.05-.8.27-1.66-.49-2.17-.75.49-.44,1.22-.49,1.98h-3.16c.05-1.02-.82-2.58.69-3.16h38.92c.22.16.34.38.49.59Z" style="fill: #6d7b8b;"/>
              <path d="M66.44,99.89c-.18,4.25-.06,8.6,0,12.84-1.15-.15-2.23-.33-3.36-.59.17-3.89.45-7.96.2-11.85,1.19.35,2.19.37,3.16-.4Z" style="fill: #6dc2d7;"/>
              <path d="M78.1,99.89c-.31,4.01.06,8.24.2,12.25-1.05.22-2.07.46-3.16.59-.25-4.1.33-8.59,0-12.64l2.96-.2Z" style="fill: #6dc2d7;"/>
              <path d="M73.95,99.89c-.37,4.19.11,8.65.2,12.84-1.19.12-1.75.18-2.96.2-.24-4.25.32-8.83,0-13.04h2.77Z" style="fill: #6dc2d7;"/>
              <path d="M62.09,111.95c-.71-.19-2.93-.54-3.16-1.19-.12-3.48.16-7,0-10.47,1.03-.15,2.52.39,3.16-.4-.35,3.83.26,8.17,0,12.05Z" style="fill: #6dc2d7;"/>
              <path d="M86.79,99.89c-.31,2.73.37,6.62.2,9.48-1.17.54-2.34.97-3.56,1.38-.22-3.52.3-7.39,0-10.87h3.36Z" style="fill: #6dc2d7;"/>
              <path d="M70.19,100.49c-.22,4.12.16,8.32,0,12.45-1.15-.02-1.81-.07-2.96-.2.19-4.03.43-8.22.2-12.25h2.77Z" style="fill: #6dc2d7;"/>
              <path d="M57.94,110.56c-1.27-.39-2.31-.67-3.56-1.19.23-2.96.38-6.13.2-9.09l3.16-.2c-.22,3.15.57,7.2.2,10.47Z" style="fill: #6dc2d7;"/>
              <path d="M82.25,101.47c-.13,3.13-.07,6.36.2,9.48-1.18.37-2.13.71-3.36.99-.1-3.55.14-7.13,0-10.67l3.16.2Z" style="fill: #6dc2d7;"/>
              <path d="M75.13,100.09c.33,4.06-.25,8.54,0,12.64-.32.04-.67-.03-.99,0-.09-4.2-.57-8.66-.2-12.84.24-2.75.99-2.2,1.19.2Z" style="fill: #1f344f;"/>
              <path d="M53.6,101.87c-.07,2.36.05,4.75,0,7.11-.98-.45-2.31-.53-3.16-1.48-.34-.67-.14-1.38-.2-2.07,1.32-.89,1.74-3.16,3.36-3.56Z" style="fill: #6dc2d7;"/>
              <path d="M63.28,100.29c.26,3.89-.03,7.96-.2,11.85-.3-.07-.71-.12-.99-.2.26-3.88-.35-8.22,0-12.05.28-3.01,1.03-1.99,1.19.4Z" style="fill: #1f344f;"/>
              <path d="M67.43,100.49c.23,4.03-.01,8.22-.2,12.25-.26-.03-.54.03-.79,0-.06-4.25-.18-8.6,0-12.84.02-.58-.53-1.5.49-1.78.78.53.44,1.5.49,2.37Z" style="fill: #1f344f;"/>
              <path d="M83.43,99.89c.3,3.48-.22,7.35,0,10.87-.3.1-.75.12-.99.2-.27-3.12-.33-6.35-.2-9.48.02-.52-.05-1.07,0-1.58.25-2.47.98-2.43,1.19,0Z" style="fill: #1f344f;"/>
              <path d="M90.74,103.65c-.05,1.15.55,2.47,0,3.66-.41.89-2.1,1.13-2.77,1.48-.04-2.04.05-4.09,0-6.12l2.77.99Z" style="fill: #6dc2d7;"/>
              <path d="M71.18,99.89c.32,4.21-.24,8.79,0,13.04-.36,0-.63,0-.99,0,.16-4.13-.22-8.32,0-12.45.12-2.22.72-4.16.99-.59Z" style="fill: #1f344f;"/>
              <path d="M79.08,100.09c.03.39-.02.79,0,1.19.14,3.54-.1,7.12,0,10.67-.26.06-.51.14-.79.2-.13-4.01-.5-8.24-.2-12.25.22-2.88.8-2.3.99.2Z" style="fill: #1f344f;"/>
              <path d="M58.93,100.29c.16,3.47-.12,6.99,0,10.47-.27.59-.86-.16-.99-.2.37-3.27-.41-7.33-.2-10.47.03-.39.29-1.95.69-1.98.82-.05.47,1.72.49,2.17Z" style="fill: #1f344f;"/>
              <path d="M90.74,103.65l-2.77-.99c-.02-.94.1-2.06,0-2.96,1.39-.58,2.88-.12,2.57-2.17.76,1.05.26,4.78.2,6.12Z" style="fill: #8895a6;"/>
              <path d="M87.97,99.7c.1.9-.02,2.02,0,2.96.05,2.04-.04,4.09,0,6.12-.33.17-.63.43-.99.59.17-2.87-.51-6.76-.2-9.48.09-.8-.04-2.16,1.19-1.28.03.36-.04.73,0,1.09Z" style="fill: #1f344f;"/>
              <path d="M53.6,100.09c-.04.58.02,1.19,0,1.78-1.62.4-2.04,2.66-3.36,3.56-.14-1.79.1-3.56.2-5.33h3.16Z" style="fill: #a2aebd;"/>
              <path d="M54.58,100.29c.18,2.96.03,6.13-.2,9.09-.27-.11-.54-.28-.79-.4.05-2.36-.07-4.75,0-7.11.02-.59-.04-1.2,0-1.78.06-.75-.25-1.49.49-1.98.76.51.44,1.37.49,2.17Z" style="fill: #1f344f;"/>
              <path d="M82.25,99.89c-.05.51.02,1.06,0,1.58l-3.16-.2c-.02-.39.03-.8,0-1.19l3.16-.2Z" style="fill: #a2aebd;"/>
            </g>
          </g>
          <g>
            <path d="M57.94,70.46c2.77,3.07,4.47,7.14,3.95,11.36-.26,2.09-.93,1.67-.99,1.78-1.05,2.15-1.5,3.33-3.36,5.04-1.84,1.08-3.73,1.93-5.83,2.37l-6.62-.2c-2.14-.89-4.15-2.77-5.33-4.74-.83-1.38-1.53-2.93-1.78-4.54l.59-.2c.49,4.23,6.39,8.03,10.37,8.3,13.11.87,15.64-16.8,3.95-20.94l.3-.79c1.79.5,3.2,1.62,4.74,2.57Z" style="fill: #2f5a7f;"/>
            <path d="M41.15,71.84c-1.12,1.29-1.57,2.36-1.98,3.95-.46,1.81-.81,3.65-.59,5.53l-.59.2c-.34-2.24-.17-4.82.79-6.92.38-.83,1.53-2.27,2.37-2.77Z" style="fill: #4691bd;"/>
            <path d="M57.55,88.63c-3.54,3.25-8,4.02-12.45,2.17l6.62.2c2.1-.44,3.98-1.29,5.83-2.37Z" style="fill: #4691bd;"/>
            <g>
              <path d="M53.2,67.89l-.3.79c11.69,4.14,9.16,21.81-3.95,20.94-3.99-.26-9.88-4.07-10.37-8.3-.22-1.89.14-3.72.59-5.53.85-.14,1.26-1.65,1.78-2.27,2.12-2.51,5.51-4.17,8.69-4.74-3.18-1.01-6.43.7-8.5,3.06-.84.49-1.99,1.93-2.37,2.77,1.81-5.82,8.81-8.29,14.42-6.72Z" style="fill: #4691bd;"/>
              <g>
                <path d="M56.96,76.78c-.37-.53-.73-.93-1.19-1.38-.4-.4-.92-.84-1.38-1.19-4.7-3.48-11.81-1.55-12.64,4.54-.22,1.58.13,2.65.4,3.95.05.24.29.6.4.99.06.23.17,1.11-.2.79-7.74-8.66,10.93-20.11,14.62-7.71Z" style="fill: #2f5a7f;"/>
                <path d="M57.55,80.33c-1.72.95-3.45,1.96-5.14,2.96l-2.57-.79c2.41-1.53,5-2.86,7.31-4.54.19.93.38,1.05.4,2.37Z" style="fill: #6dc2d7;"/>
                <path d="M51.42,87.84l-2.37-.1c2.01-.91,4.02-2.49,5.93-3.46v1.28c1.22-.84,1.35-1.39.4-1.68-.15-.05-.65-.18-.79-.2-.22-.04-1.3-.21-1.38-.2,2.99-2.54,2.04-.52,2.47-.2.68.5,2.05-2.05,1.88-2.77-.11,3.87-2.29,6.38-6.12,7.31Z" style="fill: #37b9a1;"/>
                <path d="M52.41,83.3c-2.15,1.28-4.25,2.68-6.52,3.75-.15-.09-.34.04-.99-.4h.69c-.15-.17-.87-.47-.89-.69-.03-.44,4.4-2.99,5.14-3.46l2.57.79Z" style="fill: #37b9a1;"/>
                <path d="M39.17,75.79c.4-1.59.85-2.66,1.98-3.95,2.06-2.37,5.32-4.08,8.5-3.06-3.18.57-6.57,2.23-8.69,4.74-.52.62-.93,2.14-1.78,2.27Z" style="fill: #b8c5d2;"/>
                <path d="M53.2,83.5c.08,0,1.16.16,1.38.2-1.37.96-4.82,3.73-6.22,4.15-.34.1-.79,0-1.09-.2-.44-.14-.49-.25-.79-.4,1.74-.51,5.17-3.6,6.72-3.75Z" style="fill: #37b9a1;"/>
                <path d="M57.55,80.33c0,.07,0,.13,0,.2.17.72-1.2,3.27-1.88,2.77-.43-.32.52-2.35-2.47.2-1.55.15-4.98,3.24-6.72,3.75-.1-.05-.22.02-.59-.2,2.27-1.07,4.37-2.47,6.52-3.75,1.69-1.01,3.42-2.01,5.14-2.96Z" style="fill: #2f5a7f;"/>
                <path d="M55.37,83.89c-.02.23-.22.31-.4.4-1.91.97-3.92,2.55-5.93,3.46l2.37.1c-1.35.33-2.6.69-4.25.2-.23-.07.21-.36.1-.4.3.19.75.3,1.09.2,1.41-.42,4.86-3.19,6.22-4.15.14.02.64.15.79.2Z" style="fill: #6dc2d7;"/>
                <path d="M54.39,74.21c-.12.02-.32-.03-.4,0-2.33-1.03-5.01-1.82-7.41-.59l6.03,1.58c-2.76,1.88-5.52,3.77-8.3,5.63l2.37.69c-1.16.68-2.82,2.3-4.15,2.17-.11-.39-.35-.75-.4-.99l1.78-1.88c-1.31-.84-2.04-.18-2.17-2.07.83-6.09,7.94-8.03,12.64-4.54Z" style="fill: #37b9a1;"/>
                <path d="M54.39,74.21c.46.34.98.78,1.38,1.19.3.55-.34.91-.69,1.19-2.52,1.95-5.65,3.33-8.4,4.94l-2.37-.69c2.78-1.86,5.54-3.75,8.3-5.63.32-.22,1.2-.9,1.38-.99.07-.03.27.02.4,0Z" style="fill: #6dc2d7;"/>
                <path d="M42.14,82.7c-.26-1.3-.61-2.38-.4-3.95.13,1.9.86,1.24,2.17,2.07l-1.78,1.88Z" style="fill: #37b9a1;"/>
                <g>
                  <path d="M56.96,76.78c.13.43.12.82.2,1.19-2.31,1.68-4.9,3.01-7.31,4.54-.74.47-5.17,3.02-5.14,3.46.02.22.74.53.89.69h-.69c-.16-.11-2.46-2.05-2.57-2.17.37.32.26-.56.2-.79,1.33.13,2.99-1.49,4.15-2.17,2.74-1.61,5.87-2.99,8.4-4.94.35-.27,1-.64.69-1.19.45.45.82.86,1.19,1.38Z" style="fill: #37b9a1;"/>
                  <path d="M56.07,76.38c.52.46.83.73.69,1.48-1.9.48-11.75,7.58-12.55,7.61-.39.02-.78-.67-1.09-.89l12.94-8.2Z" style="fill: #37b9a1;"/>
                </g>
                <path d="M54.98,84.29c.17-.09.38-.16.4-.4.95.29.82.84-.4,1.68v-1.28Z" style="fill: #37b9a1;"/>
                <path d="M53.99,74.21c-.19.08-1.06.77-1.38.99l-6.03-1.58c2.4-1.23,5.08-.43,7.41.59Z" style="fill: #6dc2d7;"/>
              </g>
            </g>
          </g>
        </g>
      </g>
    </g>
  </g>
</svg>
